<svg width="19" height="18" viewBox="0 0 19 18" fill="none" xmlns="http://www.w3.org/2000/svg">
<path d="M17 0H2C1.60218 0 1.22064 0.158035 0.93934 0.43934C0.658035 0.720644 0.5 1.10218 0.5 1.5V16.5C0.5 16.8978 0.658035 17.2794 0.93934 17.5607C1.22064 17.842 1.60218 18 2 18H17C17.3978 18 17.7794 17.842 18.0607 17.5607C18.342 17.2794 18.5 16.8978 18.5 16.5V1.5C18.5 1.10218 18.342 0.720644 18.0607 0.43934C17.7794 0.158035 17.3978 0 17 0ZM3.5 3.75H15.5C15.6989 3.75 15.8897 3.82902 16.0303 3.96967C16.171 4.11032 16.25 4.30109 16.25 4.5C16.25 4.69891 16.171 4.88968 16.0303 5.03033C15.8897 5.17098 15.6989 5.25 15.5 5.25H3.5C3.30109 5.25 3.11032 5.17098 2.96967 5.03033C2.82902 4.88968 2.75 4.69891 2.75 4.5C2.75 4.30109 2.82902 4.11032 2.96967 3.96967C3.11032 3.82902 3.30109 3.75 3.5 3.75ZM3.5 8.25H6.5C6.69891 8.25 6.88968 8.32902 7.03033 8.46967C7.17098 8.61032 7.25 8.80109 7.25 9C7.25 9.19891 7.17098 9.38968 7.03033 9.53033C6.88968 9.67098 6.69891 9.75 6.5 9.75H3.5C3.30109 9.75 3.11032 9.67098 2.96967 9.53033C2.82902 9.38968 2.75 9.19891 2.75 9C2.75 8.80109 2.82902 8.61032 2.96967 8.46967C3.11032 8.32902 3.30109 8.25 3.5 8.25ZM7.25 14.25H3.5C3.30109 14.25 3.11032 14.171 2.96967 14.0303C2.82902 13.8897 2.75 13.6989 2.75 13.5C2.75 13.3011 2.82902 13.1103 2.96967 12.9697C3.11032 12.829 3.30109 12.75 3.5 12.75H7.25C7.44891 12.75 7.63968 12.829 7.78033 12.9697C7.92098 13.1103 8 13.3011 8 13.5C8 13.6989 7.92098 13.8897 7.78033 14.0303C7.63968 14.171 7.44891 14.25 7.25 14.25ZM16.1141 10.4334L14.4397 11.8125L14.9497 13.875C14.9675 13.9467 14.9637 14.022 14.9389 14.0916C14.914 14.1611 14.8692 14.2218 14.81 14.2659C14.7451 14.3138 14.6666 14.3397 14.5859 14.34C14.52 14.3396 14.4553 14.3218 14.3984 14.2884L12.5 13.1756L10.6044 14.2922C10.5407 14.3296 10.4675 14.3474 10.3938 14.3434C10.3201 14.3393 10.2492 14.3136 10.19 14.2695C10.1309 14.2253 10.0861 14.1647 10.0612 14.0952C10.0364 14.0257 10.0326 13.9504 10.0503 13.8787L10.5603 11.8162L8.88594 10.4334C8.82838 10.3858 8.78635 10.3221 8.76525 10.2504C8.74415 10.1788 8.74493 10.1024 8.76749 10.0312C8.79005 9.96002 8.83337 9.89717 8.89189 9.85074C8.95041 9.80431 9.02146 9.77641 9.09594 9.77063L11.3066 9.6L12.1559 7.63125C12.185 7.56416 12.2331 7.50703 12.2942 7.46691C12.3553 7.42678 12.4269 7.4054 12.5 7.4054C12.5731 7.4054 12.6447 7.42678 12.7058 7.46691C12.7669 7.50703 12.815 7.56416 12.8441 7.63125L13.6934 9.6L15.9041 9.77063C15.9785 9.77641 16.0496 9.80431 16.1081 9.85074C16.1666 9.89717 16.2099 9.96002 16.2325 10.0312C16.2551 10.1024 16.2559 10.1788 16.2347 10.2504C16.2136 10.3221 16.1716 10.3858 16.1141 10.4334Z" fill="#B0B0B0"/>
</svg>
