<svg width="106" height="101" viewBox="0 0 106 101" fill="none" xmlns="http://www.w3.org/2000/svg">
<path d="M84.5404 20.2942V92.5714C84.5404 96.0442 81.7911 98.7935 78.3184 98.7935H22.1389C18.6662 98.7935 15.9169 96.0442 15.9169 92.5714V20.2942C15.9169 16.8214 18.6662 14.0721 22.1389 14.0721H78.4993C81.7912 14.0721 84.5404 16.8214 84.5404 20.2942Z" fill="white"/>
<path d="M5.67944 64.3911C7.50627 64.3911 9.15222 65.8562 9.15222 67.8639C9.15222 69.8716 7.68715 71.3367 5.67944 71.3367C3.67174 71.3367 2.20667 69.8716 2.20667 67.8639C2.20667 65.8562 3.67174 64.3911 5.67944 64.3911Z" fill="white"/>
<path d="M97.1655 80.4889C100.295 80.4889 102.845 83.0211 102.845 86.1683C102.845 89.3155 100.313 91.8478 97.1655 91.8478C94.0183 91.8478 91.4861 89.3155 91.4861 86.1683C91.4861 83.0211 94.0183 80.4889 97.1655 80.4889Z" fill="white"/>
<path d="M98.4498 4.73889C101.018 4.73889 103.026 6.74659 103.026 9.315C103.026 11.8834 101.018 13.8911 98.4498 13.8911C95.8814 13.8911 93.8737 11.8834 93.8737 9.315C93.8737 6.74659 95.8814 4.73889 98.4498 4.73889Z" fill="white"/>
<path d="M98.2688 57.4272C99.553 57.4272 100.638 58.5306 100.638 59.8148C100.638 61.099 99.5349 62.1842 98.2688 62.1842C97.0026 62.1842 95.8812 61.0809 95.8812 59.8148C95.8812 58.5487 96.9846 57.4272 98.2688 57.4272Z" fill="#5953D5"/>
<path d="M75.3882 2.55029C76.6725 2.55029 77.7758 3.65362 77.7758 4.91974C77.7758 6.18586 76.6725 7.30728 75.3882 7.30728C74.104 7.30728 73.0188 6.20395 73.0188 4.91974C73.1997 3.45466 74.1221 2.55029 75.3882 2.55029Z" fill="#5953D5"/>
<path d="M75.3883 30.1699V89.6413H25.0692V30.1699H75.3883Z" fill="#DEDDF7"/>
<path d="M68.6236 13.7103V14.2529C68.6236 16.6405 66.6159 18.6482 64.2284 18.6482H36.2291C34.9449 18.6482 33.8416 18.1055 33.1181 17.364C32.3946 16.6405 31.8339 15.5371 31.8339 14.2529V13.7103C31.8339 11.3409 33.8416 9.31507 36.2291 9.31507H41.3478C42.4512 5.28158 45.9239 2.36951 50.1383 2.36951C54.3527 2.36951 58.0063 5.29966 58.9288 9.31507H64.0475C66.6159 9.31507 68.6236 11.3228 68.6236 13.7103Z" fill="#DEDDF7"/>
<path d="M58.3861 44.0788C58.9288 45.363 59.3086 46.6472 59.3086 48.1123C59.3086 53.231 55.2751 57.2645 50.1564 57.2645C45.0376 57.2645 41.0042 53.231 41.0042 48.1123C41.0042 42.9936 45.0376 38.9601 50.1564 38.9601C53.81 39.141 56.9211 41.1487 58.3861 44.0788Z" fill="white"/>
<path d="M34.2214 64.7102C35.227 64.7102 36.0908 65.5872 36.0908 66.5797C36.0908 67.5193 35.2645 68.2682 34.2214 68.2682C33.2265 68.2682 32.3339 67.3839 32.3339 66.3988C32.3339 65.4614 33.1576 64.7102 34.2214 64.7102Z" fill="#5953D5" stroke="#DEDDF7"/>
<path d="M34.2214 71.6556C35.2246 71.6556 36.0908 72.5302 36.0908 73.5432C36.0908 74.5488 35.2138 75.4126 34.2214 75.4126C33.2265 75.4126 32.3339 74.5283 32.3339 73.5432C32.3339 72.5508 33.2158 71.6556 34.2214 71.6556Z" fill="#5953D5" stroke="#DEDDF7"/>
<path d="M34.2214 78.4207C35.227 78.4207 36.0908 79.2977 36.0908 80.2901C36.0908 81.2801 35.2114 82.1596 34.2214 82.1596C33.238 82.1596 32.3545 81.2955 32.3342 80.3242C32.5034 79.2211 33.2729 78.4207 34.2214 78.4207Z" fill="#5953D5" stroke="#DEDDF7"/>
<path d="M18.3044 0.162964C19.5886 0.162964 20.6739 1.26629 20.6739 2.53241C20.6739 3.79853 19.3896 4.72099 18.3044 4.72099C17.2192 4.72099 15.9169 3.61766 15.9169 2.53241C15.9169 1.44717 17.0202 0.162964 18.3044 0.162964Z" fill="#5953D5"/>
<path d="M6.7828 82.4966C8.06701 82.4966 9.15225 83.5999 9.15225 84.866C9.15225 86.1321 8.04892 87.2536 6.7828 87.2536C5.51668 87.2536 4.39526 86.1502 4.39526 84.866C4.57614 83.5818 5.4986 82.4966 6.7828 82.4966Z" fill="#5953D5"/>
<path d="M4.5942 27.6012C5.87841 27.6012 6.96365 28.7045 6.96365 29.9706C6.96365 31.2368 5.86032 32.3401 4.5942 32.3401C3.32808 32.3401 2.20667 31.2368 2.20667 29.9706C2.20667 28.7045 3.31 27.6012 4.5942 27.6012Z" fill="#5953D5"/>
<path d="M57.008 44.9433L57.0039 44.9352L56.9996 44.9271C55.6329 42.3862 53.0993 40.8295 50.3372 40.8295C46.2265 40.8295 42.8917 44.1644 42.8917 48.275C42.8917 52.3857 46.2265 55.7206 50.3372 55.7206C54.4479 55.7206 57.7828 52.3857 57.7828 48.275C57.7828 47.1001 57.5864 46.1196 57.008 44.9433ZM50.3372 59.1339C44.3862 59.1339 39.3156 54.234 39.3156 48.1122C39.3156 41.9854 44.2104 37.0906 50.3372 37.0906C54.5347 37.0906 58.196 39.3629 60.1404 43.2069C60.835 44.7909 61.1961 46.365 61.1961 48.1122C61.1961 54.2442 56.2961 59.1339 50.3553 59.1339H50.3372Z" fill="#5953D5" stroke="#DEDDF7"/>
<path d="M78.8183 100.486V100.482H78.3183H22.1389C17.6651 100.482 14.2283 96.8782 14.2283 92.5712V20.294C14.2283 15.8202 17.8319 12.3834 22.1389 12.3834H32.0146C33.0202 12.3834 33.8841 13.2604 33.8841 14.2528C33.8841 15.2477 32.9997 16.1404 32.0146 16.1404H22.1389C19.659 16.1404 17.8044 18.2065 17.8044 20.4749V92.5712C17.8044 95.0511 19.8705 96.9057 22.1389 96.9057H78.4992C80.9791 96.9057 82.8337 94.8396 82.8337 92.5712V20.294C82.8337 17.8141 80.7676 15.9595 78.4992 15.9595H68.6235C67.613 15.9595 66.736 15.0776 66.736 14.09C66.736 13.1025 67.613 12.2206 68.6235 12.2206H78.4992C82.9731 12.2206 86.4099 15.8242 86.4099 20.1312V92.5893C86.4099 96.8894 83.077 100.241 78.8183 100.486Z" fill="#5953D5" stroke="white"/>
<path d="M39.7018 7.44556H40.0243L40.1573 7.15184C41.9115 3.27857 45.7781 0.5 50.1382 0.5C54.52 0.5 58.5424 3.13369 60.1092 7.12814L60.2337 7.44556H60.5747H64.0475C67.425 7.44556 70.1313 10.1519 70.1313 13.5294V14.072V14.0844L70.1319 14.0967C70.2988 17.4683 67.5927 20.3367 64.2283 20.3367H36.229C34.5423 20.3367 33.0215 19.6713 31.8256 18.4754C30.6297 17.2796 29.9644 15.7587 29.9644 14.072V13.5294C29.9644 10.1519 32.6707 7.44556 36.0482 7.44556H39.7018ZM57.4117 9.94229L57.41 9.93374L57.408 9.92525C56.6328 6.59191 53.685 4.2389 50.3372 4.2389C46.9963 4.2389 44.0466 6.58426 43.268 9.73777L43.2632 9.7571L43.26 9.77674C43.1911 10.1967 42.9889 10.4896 42.7106 10.6854C42.4233 10.8875 42.028 11.0036 41.5648 11.0036H36.2652H35.7652V11.2283C34.6035 11.4506 33.7213 12.4894 33.7213 13.6922V14.2348C33.7213 14.872 33.9311 15.5741 34.4104 16.0534C34.8897 16.5327 35.5918 16.7425 36.229 16.7425H64.2283C65.6107 16.7425 66.736 15.5932 66.736 14.2348V13.6922C66.736 12.3098 65.5868 11.1845 64.2283 11.1845H59.1096C58.2146 11.1845 57.5409 10.6013 57.4117 9.94229Z" fill="#5953D5" stroke="white"/>
<path d="M26.9567 87.2537V87.7537H27.4567H73.1997H73.6997V87.2537V32.3584V31.8584H73.1997H27.4567H26.9567V32.3584V87.2537ZM75.3883 91.3298H25.0692C24.0636 91.3298 23.1997 90.4528 23.1997 89.4603V30.1699C23.1997 29.1643 24.0767 28.3004 25.0692 28.3004H75.3883C76.3988 28.3004 77.2758 29.1823 77.2758 30.1699V89.6412C77.2758 90.5941 76.4549 91.3298 75.3883 91.3298Z" fill="#5953D5" stroke="white"/>
<path d="M5.67944 73.0435C2.84455 73.0435 0.5 70.6989 0.5 67.864C0.5 65.0291 2.84455 62.6846 5.67944 62.6846C8.51433 62.6846 10.8589 65.0291 10.8589 67.864C10.8589 70.6989 8.51433 73.0435 5.67944 73.0435ZM5.67944 66.2788C5.24684 66.2788 4.85087 66.4895 4.57267 66.7647C4.29373 67.0406 4.07611 67.4378 4.07611 67.8821C4.07611 68.3213 4.28482 68.7185 4.56395 68.9976C4.84309 69.2767 5.2402 69.4854 5.67944 69.4854C6.11868 69.4854 6.51579 69.2767 6.79493 68.9976C7.07406 68.7185 7.28277 68.3213 7.28277 67.8821C7.28277 67.4429 7.07406 67.0458 6.79493 66.7666C6.51579 66.4875 6.11868 66.2788 5.67944 66.2788Z" fill="#5953D5" stroke="white"/>
<path d="M97.1655 93.7172C93.0464 93.7172 89.6166 90.2874 89.6166 86.1683C89.6166 82.0492 93.0464 78.6194 97.1655 78.6194C101.285 78.6194 104.714 82.0492 104.714 86.1683C104.714 90.2874 101.285 93.7172 97.1655 93.7172ZM97.1655 82.1955C95.0796 82.1955 93.1927 83.8676 93.1927 86.1683C93.1927 88.4521 94.8816 90.1411 97.1655 90.1411C99.4493 90.1411 101.138 88.4521 101.138 86.1683C101.138 83.8676 99.2513 82.1955 97.1655 82.1955Z" fill="#5953D5" stroke="white"/>
<path d="M98.4497 15.7606C94.8913 15.7606 92.0042 12.8735 92.0042 9.31507C92.0042 5.75668 94.8913 2.86951 98.4497 2.86951C102.008 2.86951 104.895 5.75668 104.895 9.31507C104.895 12.8735 102.008 15.7606 98.4497 15.7606ZM98.4497 6.60841C96.8869 6.60841 95.5803 7.93806 95.5803 9.47785C95.5803 11.0201 96.9075 12.3473 98.4497 12.3473C99.9871 12.3473 101.337 11.025 101.337 9.47785C101.337 7.70688 99.9793 6.60841 98.4497 6.60841Z" fill="#5953D5" stroke="white"/>
<path d="M54.8953 68.2864H41.1669C40.1613 68.2864 39.2975 67.4094 39.2975 66.417C39.2975 65.4221 40.1818 64.5294 41.1669 64.5294H54.8953C55.8984 64.5294 56.7647 65.404 56.7647 66.417C56.7647 66.8899 56.5259 67.3583 56.1434 67.7199C55.7571 68.0852 55.2822 68.2864 54.8953 68.2864Z" fill="#5953D5" stroke="#DEDDF7"/>
<path d="M54.8953 75.2317H41.1669C40.1638 75.2317 39.2975 74.3572 39.2975 73.3442C39.2975 72.3386 40.1745 71.4747 41.1669 71.4747H54.8953C55.9009 71.4747 56.7647 72.3517 56.7647 73.3442C56.7647 73.8078 56.5261 74.2819 56.1406 74.6521C55.7515 75.0258 55.2773 75.2317 54.8953 75.2317Z" fill="#5953D5" stroke="#DEDDF7"/>
<path d="M54.8953 81.9968H41.1669C40.1613 81.9968 39.2975 81.1198 39.2975 80.1274C39.2975 79.1325 40.1818 78.2399 41.1669 78.2399H54.8953C55.887 78.2399 56.7449 79.0945 56.7644 80.0927C56.6837 80.6051 56.4218 81.0858 56.0665 81.4392C55.6999 81.8039 55.2729 81.9968 54.8953 81.9968Z" fill="#5953D5" stroke="#DEDDF7"/>
<path d="M66.2541 81.9968H61.678C60.6724 81.9968 59.8086 81.1198 59.8086 80.1274C59.8086 79.1325 60.6929 78.2399 61.678 78.2399H66.2541C67.2622 78.2399 68.1417 79.1193 68.1417 80.1274C68.1417 81.1306 67.2671 81.9968 66.2541 81.9968Z" fill="#5953D5" stroke="#DEDDF7"/>
<path d="M66.2541 75.2317H61.678C60.6749 75.2317 59.8086 74.3572 59.8086 73.3442C59.8086 72.3386 60.6856 71.4747 61.678 71.4747H66.2541C67.2647 71.4747 68.1417 72.3567 68.1417 73.3442C68.1417 74.3366 67.2598 75.2317 66.2541 75.2317Z" fill="#5953D5" stroke="#DEDDF7"/>
<path d="M66.2541 68.2864H61.678C60.6724 68.2864 59.8086 67.4094 59.8086 66.417C59.8086 65.4221 60.6929 64.5294 61.678 64.5294H66.2541C67.2622 64.5294 68.1417 65.4089 68.1417 66.417C68.1417 67.4201 67.2671 68.2864 66.2541 68.2864Z" fill="#5953D5" stroke="#DEDDF7"/>
<path d="M50.888 47.5437L51.2153 47.871L51.5668 47.5698L60.5382 39.8827L60.5528 39.8701L60.5664 39.8565C61.2406 39.1823 62.3671 39.2702 63.153 40.0391C63.8283 40.7166 63.7474 41.8517 62.9833 42.6094L52.5827 51.7302C52.3194 51.9055 52.0779 52.0616 51.8438 52.1767C51.6012 52.296 51.4048 52.3515 51.2415 52.3515C50.8288 52.3515 50.3961 52.2214 49.9491 51.7744L46.6572 48.4825C45.93 47.7553 45.93 46.6249 46.6572 45.8977C47.3844 45.1705 48.5148 45.1705 49.242 45.8977L50.888 47.5437Z" fill="#5953D5" stroke="#DEDDF7"/>
</svg>
