<svg width="121" height="120" viewBox="0 0 121 120" fill="none" xmlns="http://www.w3.org/2000/svg">
<path d="M103.192 57.6924C106.377 57.6924 108.962 60.2747 108.962 63.4616C108.962 66.6485 106.377 69.2308 103.192 69.2308C100.005 69.2308 97.4231 66.6485 97.4231 63.4616C97.4231 60.2747 100.005 57.6924 103.192 57.6924Z" fill="#5953D5" fill-opacity="0.2"/>
<path d="M38.577 9.23071C40.4877 9.23071 42.0385 10.7815 42.0385 12.6923C42.0385 14.603 40.4877 16.1538 38.577 16.1538C36.6639 16.1538 35.1154 14.603 35.1154 12.6923C35.1154 10.7815 36.6639 9.23071 38.577 9.23071Z" fill="#5953D5" fill-opacity="0.2"/>
<path d="M18.9615 77.3076C22.7831 77.3076 25.8846 80.4068 25.8846 84.2307C25.8846 88.0545 22.7831 91.1538 18.9615 91.1538C15.1377 91.1538 12.0385 88.0545 12.0385 84.2307C12.0385 80.4068 15.1377 77.3076 18.9615 77.3076Z" fill="#5953D5" fill-opacity="0.2"/>
<path d="M59.3462 95.4738L36.4585 104.628L43.3239 73.4402C43.94 73.5371 44.5608 73.5856 45.1816 73.5856C47.3208 73.5856 49.3493 74.4371 50.8654 75.9463C53.0367 78.1135 56.0346 79.454 59.3462 79.454C62.6554 79.454 65.6531 78.1133 67.8246 75.9489C69.3406 74.4371 71.3713 73.5881 73.5108 73.5881C74.1316 73.5881 74.7523 73.5397 75.3662 73.4427L82.2316 104.629L59.3462 95.4738Z" fill="white"/>
<path d="M87.8808 38.9308C86.369 37.417 85.52 35.3862 85.52 33.247C85.52 30.1731 84.3477 27.1016 82.0031 24.7547C79.6561 22.41 76.5846 21.2377 73.5108 21.2377C71.3715 21.2377 69.3408 20.3885 67.8269 18.877C65.6531 16.71 62.6554 15.3716 59.3461 15.3716C56.0346 15.3716 53.0367 16.71 50.8654 18.877C49.3492 20.3885 47.3184 21.2377 45.1815 21.2377C42.1077 21.2377 39.0338 22.41 36.6892 24.7547C34.3423 27.1016 33.1723 30.1731 33.17 33.247C33.17 35.3862 32.3208 37.417 30.8092 38.9308C28.6423 41.1047 27.3038 44.1023 27.3038 47.4116C27.3038 50.7231 28.6423 53.7208 30.8092 55.8923C32.3208 57.4085 33.17 59.4367 33.17 61.5762C33.17 64.65 34.3423 67.7239 36.6892 70.0685C38.5608 71.94 40.8938 73.0639 43.3238 73.44C43.94 73.537 44.5608 73.5854 45.1815 73.5854C47.3208 73.5854 49.3492 74.437 50.8654 75.9462C53.0367 78.1133 56.0346 79.4539 59.3461 79.4539C62.6554 79.4539 65.6531 78.1131 67.8246 75.9487C69.3405 74.437 71.3713 73.588 73.5108 73.588C74.1315 73.588 74.7523 73.5395 75.3661 73.4426C77.7938 73.0641 80.1292 71.9426 82.0008 70.0687C84.3477 67.7241 85.5177 64.6503 85.52 61.5764C85.52 59.4395 86.3692 57.4087 87.8808 55.8926C90.0474 53.721 91.3859 50.7234 91.3859 47.4118C91.3861 44.1024 90.0474 41.1047 87.8808 38.9308Z" fill="#5953D5" fill-opacity="0.2"/>
<path d="M59.3461 69.173C71.3647 69.173 81.1077 59.43 81.1077 47.4114C81.1077 35.3929 71.3647 25.6499 59.3461 25.6499C47.3276 25.6499 37.5846 35.3929 37.5846 47.4114C37.5846 59.43 47.3276 69.173 59.3461 69.173Z" fill="white"/>
<path d="M68.4638 44.1116L68.4617 44.1137C67.9783 42.6313 67.1362 41.3166 66.1393 40.3416L66.1397 40.3411C61.5802 35.8053 53.9025 37.0434 50.9974 42.7732H50.9999C50.3288 44.0936 49.9751 45.5413 49.9751 47.0828H49.9744C49.9995 55.6471 60.6338 59.8829 66.479 53.4227C68.7311 50.9449 69.5318 47.3823 68.4638 44.1116Z" fill="#5953D5" fill-opacity="0.2"/>
<path d="M71.7662 37.7631C72.6062 38.6031 72.6062 39.9669 71.7662 40.8092L68.4639 44.1115L63.3893 49.1838L60.3433 52.23L57.2995 49.1838L55.7764 47.6607C55.3541 47.2407 55.1441 46.6892 55.1441 46.1377C55.1441 45.5861 55.3541 45.0369 55.7764 44.6146C56.6164 43.7746 57.9803 43.7746 58.8226 44.6146L60.3433 46.1377L66.14 40.3407L68.72 37.7631C69.14 37.3431 69.6918 37.1331 70.2433 37.1331C70.7923 37.1331 71.3462 37.3431 71.7662 37.7631Z" fill="white"/>
<path d="M109.538 33.4617C110.494 33.4617 111.269 34.2371 111.269 35.1924C111.269 36.1478 110.494 36.9232 109.538 36.9232C108.581 36.9232 107.808 36.1478 107.808 35.1924C107.808 34.2371 108.581 33.4617 109.538 33.4617Z" fill="#3028CB"/>
<path d="M109.538 33.4617C110.494 33.4617 111.269 34.2371 111.269 35.1924C111.269 36.1478 110.494 36.9232 109.538 36.9232C108.581 36.9232 107.808 36.1478 107.808 35.1924C107.808 34.2371 108.581 33.4617 109.538 33.4617Z" fill="white" fill-opacity="0.2"/>
<path d="M94.5384 80.7693C95.4938 80.7693 96.2692 81.5447 96.2692 82.5001C96.2692 83.4554 95.4938 84.2308 94.5384 84.2308C93.5808 84.2308 92.8077 83.4554 92.8077 82.5001C92.8077 81.5447 93.5808 80.7693 94.5384 80.7693Z" fill="#3028CB"/>
<path d="M94.5384 80.7693C95.4938 80.7693 96.2692 81.5447 96.2692 82.5001C96.2692 83.4554 95.4938 84.2308 94.5384 84.2308C93.5808 84.2308 92.8077 83.4554 92.8077 82.5001C92.8077 81.5447 93.5808 80.7693 94.5384 80.7693Z" fill="white" fill-opacity="0.2"/>
<path d="M92.2308 17.3076C93.1862 17.3076 93.9615 18.083 93.9615 19.0384C93.9615 19.9938 93.1862 20.7692 92.2308 20.7692C91.2731 20.7692 90.5 19.9938 90.5 19.0384C90.5 18.083 91.2731 17.3076 92.2308 17.3076Z" fill="#3028CB"/>
<path d="M92.2308 17.3076C93.1862 17.3076 93.9615 18.083 93.9615 19.0384C93.9615 19.9938 93.1862 20.7692 92.2308 20.7692C91.2731 20.7692 90.5 19.9938 90.5 19.0384C90.5 18.083 91.2731 17.3076 92.2308 17.3076Z" fill="white" fill-opacity="0.2"/>
<path d="M51.8461 105C52.8015 105 53.5769 105.775 53.5769 106.731C53.5769 107.686 52.8015 108.462 51.8461 108.462C50.8884 108.462 50.1154 107.686 50.1154 106.731C50.1154 105.775 50.8884 105 51.8461 105Z" fill="#3028CB"/>
<path d="M51.8461 105C52.8015 105 53.5769 105.775 53.5769 106.731C53.5769 107.686 52.8015 108.462 51.8461 108.462C50.8884 108.462 50.1154 107.686 50.1154 106.731C50.1154 105.775 50.8884 105 51.8461 105Z" fill="white" fill-opacity="0.2"/>
<path d="M50.6923 6.9231C51.6477 6.9231 52.4231 7.69848 52.4231 8.65386C52.4231 9.60925 51.6477 10.3846 50.6923 10.3846C49.7346 10.3846 48.9615 9.60925 48.9615 8.65386C48.9615 7.69848 49.7346 6.9231 50.6923 6.9231Z" fill="#3028CB"/>
<path d="M50.6923 6.9231C51.6477 6.9231 52.4231 7.69848 52.4231 8.65386C52.4231 9.60925 51.6477 10.3846 50.6923 10.3846C49.7346 10.3846 48.9615 9.60925 48.9615 8.65386C48.9615 7.69848 49.7346 6.9231 50.6923 6.9231Z" fill="white" fill-opacity="0.2"/>
<path d="M26.4615 68.0769C27.4169 68.0769 28.1923 68.8523 28.1923 69.8077C28.1923 70.7631 27.4169 71.5384 26.4615 71.5384C25.5039 71.5384 24.7308 70.7631 24.7308 69.8077C24.7308 68.8523 25.5039 68.0769 26.4615 68.0769Z" fill="#3028CB"/>
<path d="M26.4615 68.0769C27.4169 68.0769 28.1923 68.8523 28.1923 69.8077C28.1923 70.7631 27.4169 71.5384 26.4615 71.5384C25.5039 71.5384 24.7308 70.7631 24.7308 69.8077C24.7308 68.8523 25.5039 68.0769 26.4615 68.0769Z" fill="white" fill-opacity="0.2"/>
<path d="M23 17.3076C23.9554 17.3076 24.7308 18.083 24.7308 19.0384C24.7308 19.9938 23.9554 20.7692 23 20.7692C22.0423 20.7692 21.2692 19.9938 21.2692 19.0384C21.2692 18.083 22.0423 17.3076 23 17.3076Z" fill="#3028CB"/>
<path d="M23 17.3076C23.9554 17.3076 24.7308 18.083 24.7308 19.0384C24.7308 19.9938 23.9554 20.7692 23 20.7692C22.0423 20.7692 21.2692 19.9938 21.2692 19.0384C21.2692 18.083 22.0423 17.3076 23 17.3076Z" fill="white" fill-opacity="0.2"/>
<path d="M11.4615 45C12.4169 45 13.1923 45.7754 13.1923 46.7308C13.1923 47.6862 12.4169 48.4615 11.4615 48.4615C10.5039 48.4615 9.73077 47.6862 9.73077 46.7308C9.73077 45.7754 10.5039 45 11.4615 45Z" fill="#3028CB"/>
<path d="M11.4615 45C12.4169 45 13.1923 45.7754 13.1923 46.7308C13.1923 47.6862 12.4169 48.4615 11.4615 48.4615C10.5039 48.4615 9.73077 47.6862 9.73077 46.7308C9.73077 45.7754 10.5039 45 11.4615 45Z" fill="white" fill-opacity="0.2"/>
<path d="M59.3462 70.3269C46.7106 70.3269 36.4308 60.047 36.4308 47.4115C36.4308 34.7759 46.7106 24.4961 59.3462 24.4961C71.9817 24.4961 82.2616 34.7759 82.2616 47.4115C82.2616 60.047 71.9817 70.3269 59.3462 70.3269ZM59.3462 26.8038C47.9831 26.8038 38.7385 36.0484 38.7385 47.4115C38.7385 58.7746 47.9831 68.0192 59.3462 68.0192C70.7092 68.0192 79.9539 58.7746 79.9539 47.4115C79.9539 36.0484 70.7092 26.8038 59.3462 26.8038Z" fill="#3028CB"/>
<path d="M59.3462 70.3269C46.7106 70.3269 36.4308 60.047 36.4308 47.4115C36.4308 34.7759 46.7106 24.4961 59.3462 24.4961C71.9817 24.4961 82.2616 34.7759 82.2616 47.4115C82.2616 60.047 71.9817 70.3269 59.3462 70.3269ZM59.3462 26.8038C47.9831 26.8038 38.7385 36.0484 38.7385 47.4115C38.7385 58.7746 47.9831 68.0192 59.3462 68.0192C70.7092 68.0192 79.9539 58.7746 79.9539 47.4115C79.9539 36.0484 70.7092 26.8038 59.3462 26.8038Z" fill="white" fill-opacity="0.2"/>
<path d="M59.3462 64.5577C49.8918 64.5577 42.2 56.8659 42.2 47.4115C42.2 37.9572 49.8918 30.2654 59.3462 30.2654C59.9836 30.2654 60.5 30.7821 60.5 31.4192C60.5 32.0564 59.9836 32.5731 59.3462 32.5731C51.1642 32.5731 44.5077 39.2296 44.5077 47.4115C44.5077 55.5935 51.1642 62.25 59.3462 62.25C67.5281 62.25 74.1846 55.5935 74.1846 47.4115C74.1846 46.7744 74.7013 46.2577 75.3385 46.2577C75.9756 46.2577 76.4923 46.7744 76.4923 47.4115C76.4923 56.8659 68.8006 64.5577 59.3462 64.5577Z" fill="#3028CB"/>
<path d="M59.3462 64.5577C49.8918 64.5577 42.2 56.8659 42.2 47.4115C42.2 37.9572 49.8918 30.2654 59.3462 30.2654C59.9836 30.2654 60.5 30.7821 60.5 31.4192C60.5 32.0564 59.9836 32.5731 59.3462 32.5731C51.1642 32.5731 44.5077 39.2296 44.5077 47.4115C44.5077 55.5935 51.1642 62.25 59.3462 62.25C67.5281 62.25 74.1846 55.5935 74.1846 47.4115C74.1846 46.7744 74.7013 46.2577 75.3385 46.2577C75.9756 46.2577 76.4923 46.7744 76.4923 47.4115C76.4923 56.8659 68.8006 64.5577 59.3462 64.5577Z" fill="white" fill-opacity="0.2"/>
<path d="M59.3462 96.6277C58.709 96.6277 58.1923 96.1112 58.1923 95.4738V88.6084C58.1923 87.9711 58.709 87.4546 59.3462 87.4546C59.9836 87.4546 60.5 87.9711 60.5 88.6084V95.4738C60.5 96.111 59.9836 96.6277 59.3462 96.6277Z" fill="#3028CB"/>
<path d="M59.3462 96.6277C58.709 96.6277 58.1923 96.1112 58.1923 95.4738V88.6084C58.1923 87.9711 58.709 87.4546 59.3462 87.4546C59.9836 87.4546 60.5 87.9711 60.5 88.6084V95.4738C60.5 96.111 59.9836 96.6277 59.3462 96.6277Z" fill="white" fill-opacity="0.2"/>
<path d="M59.3462 80.6078C55.8362 80.6078 52.5348 79.2423 50.0503 76.7629C48.7398 75.4584 47.0102 74.7393 45.1813 74.7393C44.5022 74.7393 43.8168 74.6858 43.1443 74.5801C40.3776 74.152 37.8622 72.8735 35.873 70.8843C33.3858 68.3994 32.0159 65.0936 32.0159 61.5762C32.0159 59.7455 31.2971 58.0164 29.9919 56.707C27.5143 54.2242 26.1498 50.923 26.1498 47.4116C26.1498 43.9028 27.5143 40.6016 29.9919 38.1162C31.2973 36.8087 32.0159 35.0795 32.0159 33.2468C32.0185 29.7287 33.3883 26.4234 35.873 23.9387C38.3589 21.4529 41.6646 20.0837 45.1811 20.0837C47.0118 20.0837 48.7412 19.3649 50.0503 18.0596C52.5336 15.5823 55.8348 14.2178 59.3462 14.2178C62.8545 14.2178 66.1557 15.5823 68.6413 18.0596C69.9489 19.3653 71.6778 20.0837 73.5108 20.0837C77.0249 20.0837 80.3305 21.4526 82.8184 23.9382C85.3049 26.4271 86.6739 29.7326 86.6739 33.2468C86.6739 35.0795 87.3922 36.8087 88.6972 38.1155C91.1757 40.6016 92.54 43.903 92.54 47.4116C92.54 50.9228 91.1755 54.2242 88.6977 56.7075C87.3929 58.0162 86.6739 59.7455 86.6739 61.5762C86.6711 65.0968 85.3012 68.4022 82.8161 70.8848C80.8319 72.8712 78.317 74.1502 75.5436 74.5824C74.8755 74.6879 74.1911 74.7416 73.5105 74.7416C71.6782 74.7416 69.9484 75.4605 68.639 76.7657C66.1536 79.2435 62.8532 80.6078 59.3462 80.6078ZM59.3462 16.5255C56.4502 16.5255 53.7279 17.6507 51.6805 19.6937C49.9352 21.4335 47.6275 22.3914 45.1815 22.3914C42.2815 22.3914 39.5552 23.5205 37.5052 25.5705C35.4558 27.6197 34.3262 30.3462 34.3239 33.2475C34.3239 35.6952 33.3657 38.0032 31.6257 39.7459C29.5829 41.7952 28.4577 44.5178 28.4577 47.4114C28.4577 50.3073 29.5829 53.0297 31.6259 55.0771C33.3657 56.8224 34.3236 59.1301 34.3236 61.576C34.3236 64.4765 35.4532 67.2029 37.5045 69.2521C39.1451 70.8926 41.2183 71.9465 43.5002 72.2996C44.0572 72.3873 44.6217 72.4314 45.1813 72.4314C47.6245 72.4314 49.9322 73.3891 51.6793 75.1282C53.729 77.1739 56.4516 78.2999 59.3462 78.2999C62.2384 78.2999 64.9601 77.1746 67.01 75.1314C68.7546 73.3918 71.063 72.4339 73.5108 72.4339C74.0709 72.4339 74.6346 72.3899 75.1864 72.3029C77.4747 71.9461 79.5479 70.8917 81.1845 69.2532C83.2345 67.2054 84.3639 64.4788 84.3662 61.5753C84.3662 59.1303 85.3241 56.8224 87.0639 55.0778C89.1071 53.0299 90.2323 50.3075 90.2323 47.4116C90.2323 44.518 89.1069 41.7954 87.0639 39.7455C85.3246 38.0036 84.3662 35.6955 84.3662 33.247C84.3662 30.3488 83.237 27.6225 81.1869 25.5702C79.1353 23.5208 76.409 22.3916 73.5108 22.3916C71.0623 22.3916 68.7542 21.4335 67.0116 19.6935C64.9622 17.6507 62.2398 16.5255 59.3462 16.5255Z" fill="#3028CB"/>
<path d="M59.3462 80.6078C55.8362 80.6078 52.5348 79.2423 50.0503 76.7629C48.7398 75.4584 47.0102 74.7393 45.1813 74.7393C44.5022 74.7393 43.8168 74.6858 43.1443 74.5801C40.3776 74.152 37.8622 72.8735 35.873 70.8843C33.3858 68.3994 32.0159 65.0936 32.0159 61.5762C32.0159 59.7455 31.2971 58.0164 29.9919 56.707C27.5143 54.2242 26.1498 50.923 26.1498 47.4116C26.1498 43.9028 27.5143 40.6016 29.9919 38.1162C31.2973 36.8087 32.0159 35.0795 32.0159 33.2468C32.0185 29.7287 33.3883 26.4234 35.873 23.9387C38.3589 21.4529 41.6646 20.0837 45.1811 20.0837C47.0118 20.0837 48.7412 19.3649 50.0503 18.0596C52.5336 15.5823 55.8348 14.2178 59.3462 14.2178C62.8545 14.2178 66.1557 15.5823 68.6413 18.0596C69.9489 19.3653 71.6778 20.0837 73.5108 20.0837C77.0249 20.0837 80.3305 21.4526 82.8184 23.9382C85.3049 26.4271 86.6739 29.7326 86.6739 33.2468C86.6739 35.0795 87.3922 36.8087 88.6972 38.1155C91.1757 40.6016 92.54 43.903 92.54 47.4116C92.54 50.9228 91.1755 54.2242 88.6977 56.7075C87.3929 58.0162 86.6739 59.7455 86.6739 61.5762C86.6711 65.0968 85.3012 68.4022 82.8161 70.8848C80.8319 72.8712 78.317 74.1502 75.5436 74.5824C74.8755 74.6879 74.1911 74.7416 73.5105 74.7416C71.6782 74.7416 69.9484 75.4605 68.639 76.7657C66.1536 79.2435 62.8532 80.6078 59.3462 80.6078ZM59.3462 16.5255C56.4502 16.5255 53.7279 17.6507 51.6805 19.6937C49.9352 21.4335 47.6275 22.3914 45.1815 22.3914C42.2815 22.3914 39.5552 23.5205 37.5052 25.5705C35.4558 27.6197 34.3262 30.3462 34.3239 33.2475C34.3239 35.6952 33.3657 38.0032 31.6257 39.7459C29.5829 41.7952 28.4577 44.5178 28.4577 47.4114C28.4577 50.3073 29.5829 53.0297 31.6259 55.0771C33.3657 56.8224 34.3236 59.1301 34.3236 61.576C34.3236 64.4765 35.4532 67.2029 37.5045 69.2521C39.1451 70.8926 41.2183 71.9465 43.5002 72.2996C44.0572 72.3873 44.6217 72.4314 45.1813 72.4314C47.6245 72.4314 49.9322 73.3891 51.6793 75.1282C53.729 77.1739 56.4516 78.2999 59.3462 78.2999C62.2384 78.2999 64.9601 77.1746 67.01 75.1314C68.7546 73.3918 71.063 72.4339 73.5108 72.4339C74.0709 72.4339 74.6346 72.3899 75.1864 72.3029C77.4747 71.9461 79.5479 70.8917 81.1845 69.2532C83.2345 67.2054 84.3639 64.4788 84.3662 61.5753C84.3662 59.1303 85.3241 56.8224 87.0639 55.0778C89.1071 53.0299 90.2323 50.3075 90.2323 47.4116C90.2323 44.518 89.1069 41.7954 87.0639 39.7455C85.3246 38.0036 84.3662 35.6955 84.3662 33.247C84.3662 30.3488 83.237 27.6225 81.1869 25.5702C79.1353 23.5208 76.409 22.3916 73.5108 22.3916C71.0623 22.3916 68.7542 21.4335 67.0116 19.6935C64.9622 17.6507 62.2398 16.5255 59.3462 16.5255Z" fill="white" fill-opacity="0.2"/>
<path d="M36.4585 105.782C36.1896 105.782 35.924 105.688 35.7119 105.508C35.3858 105.232 35.2395 104.798 35.3314 104.38L42.1968 73.1916C42.3338 72.5695 42.9505 72.1751 43.5717 72.3129C44.1941 72.4499 44.5875 73.0654 44.4507 73.6878L38.054 102.747L58.9176 94.4021C59.1927 94.292 59.4994 94.292 59.7747 94.4021L80.636 102.747L74.2393 73.6901C74.2213 73.6086 74.2123 73.5253 74.2123 73.442C74.2123 72.8046 74.7288 72.287 75.3662 72.287C75.9318 72.287 76.4025 72.6934 76.5011 73.2304L83.3584 104.38C83.4502 104.798 83.3039 105.232 82.9781 105.508C82.652 105.785 82.1995 105.858 81.803 105.7L59.3461 96.7162L36.887 105.7C36.7483 105.755 36.6029 105.782 36.4585 105.782Z" fill="#3028CB"/>
<path d="M36.4585 105.782C36.1896 105.782 35.924 105.688 35.7119 105.508C35.3858 105.232 35.2395 104.798 35.3314 104.38L42.1968 73.1916C42.3338 72.5695 42.9505 72.1751 43.5717 72.3129C44.1941 72.4499 44.5875 73.0654 44.4507 73.6878L38.054 102.747L58.9176 94.4021C59.1927 94.292 59.4994 94.292 59.7747 94.4021L80.636 102.747L74.2393 73.6901C74.2213 73.6086 74.2123 73.5253 74.2123 73.442C74.2123 72.8046 74.7288 72.287 75.3662 72.287C75.9318 72.287 76.4025 72.6934 76.5011 73.2304L83.3584 104.38C83.4502 104.798 83.3039 105.232 82.9781 105.508C82.652 105.785 82.1995 105.858 81.803 105.7L59.3461 96.7162L36.887 105.7C36.7483 105.755 36.6029 105.782 36.4585 105.782Z" fill="white" fill-opacity="0.2"/>
<path d="M60.3431 53.3839H60.3426C60.0366 53.3839 59.7431 53.2622 59.5266 53.0456L54.9599 48.4766C54.335 47.8551 53.9897 47.0236 53.9897 46.1377C53.9897 45.255 54.3343 44.4245 54.9599 43.7986C55.5841 43.1744 56.4144 42.8308 57.2981 42.8308C58.181 42.8308 59.0115 43.1742 59.6369 43.7975L60.3435 44.5052L67.9044 36.9469C68.5282 36.3231 69.359 35.9792 70.2431 35.9792C71.1274 35.9792 71.9581 36.3231 72.5821 36.9473C73.8703 38.2352 73.8707 40.3332 72.5831 41.6241L61.1591 53.046C60.9426 53.2622 60.6491 53.3839 60.3431 53.3839ZM57.2983 45.1385C57.0311 45.1385 56.7802 45.2421 56.5919 45.4306C56.402 45.6206 56.2974 45.8716 56.2974 46.1377C56.2974 46.4049 56.4013 46.6553 56.5896 46.8425L60.3433 50.5978L70.9501 39.9932C71.3392 39.6032 71.3397 38.9684 70.9501 38.5791C70.7621 38.3908 70.5107 38.2869 70.2431 38.2869C69.9754 38.2869 69.7241 38.3906 69.536 38.5791L61.1591 46.9537C60.9426 47.1702 60.6493 47.2916 60.3433 47.2916H60.3428C60.0366 47.2913 59.7428 47.1697 59.5266 46.953L58.0058 45.4299C57.818 45.2426 57.566 45.1385 57.2983 45.1385Z" fill="#3028CB"/>
<path d="M60.3431 53.3839H60.3426C60.0366 53.3839 59.7431 53.2622 59.5266 53.0456L54.9599 48.4766C54.335 47.8551 53.9897 47.0236 53.9897 46.1377C53.9897 45.255 54.3343 44.4245 54.9599 43.7986C55.5841 43.1744 56.4144 42.8308 57.2981 42.8308C58.181 42.8308 59.0115 43.1742 59.6369 43.7975L60.3435 44.5052L67.9044 36.9469C68.5282 36.3231 69.359 35.9792 70.2431 35.9792C71.1274 35.9792 71.9581 36.3231 72.5821 36.9473C73.8703 38.2352 73.8707 40.3332 72.5831 41.6241L61.1591 53.046C60.9426 53.2622 60.6491 53.3839 60.3431 53.3839ZM57.2983 45.1385C57.0311 45.1385 56.7802 45.2421 56.5919 45.4306C56.402 45.6206 56.2974 45.8716 56.2974 46.1377C56.2974 46.4049 56.4013 46.6553 56.5896 46.8425L60.3433 50.5978L70.9501 39.9932C71.3392 39.6032 71.3397 38.9684 70.9501 38.5791C70.7621 38.3908 70.5107 38.2869 70.2431 38.2869C69.9754 38.2869 69.7241 38.3906 69.536 38.5791L61.1591 46.9537C60.9426 47.1702 60.6493 47.2916 60.3433 47.2916H60.3428C60.0366 47.2913 59.7428 47.1697 59.5266 46.953L58.0058 45.4299C57.818 45.2426 57.566 45.1385 57.2983 45.1385Z" fill="white" fill-opacity="0.2"/>
<path d="M59.4546 57.6924C53.591 57.6924 48.8208 52.9222 48.8208 47.0585C48.8208 41.1963 53.591 36.427 59.4546 36.427C62.2834 36.427 64.9467 37.5264 66.9537 39.5228C67.4056 39.9721 67.4074 40.7027 66.9581 41.1545C66.5088 41.6064 65.7782 41.6082 65.3266 41.1589C63.7548 39.5957 61.6693 38.7347 59.4549 38.7347C54.8637 38.7347 51.1287 42.4688 51.1287 47.0585C51.1287 51.6497 54.864 55.3847 59.4549 55.3847C64.0449 55.3847 67.7785 51.6495 67.7785 47.0585C67.7785 46.1784 67.64 45.3072 67.367 44.4691C67.1697 43.8631 67.5006 43.2118 68.1066 43.0145C68.7124 42.817 69.3637 43.1482 69.5612 43.7542C69.9097 44.8235 70.0862 45.9354 70.0862 47.0585C70.086 52.9222 65.3169 57.6924 59.4546 57.6924Z" fill="#3028CB"/>
<path d="M59.4546 57.6924C53.591 57.6924 48.8208 52.9222 48.8208 47.0585C48.8208 41.1963 53.591 36.427 59.4546 36.427C62.2834 36.427 64.9467 37.5264 66.9537 39.5228C67.4056 39.9721 67.4074 40.7027 66.9581 41.1545C66.5088 41.6064 65.7782 41.6082 65.3266 41.1589C63.7548 39.5957 61.6693 38.7347 59.4549 38.7347C54.8637 38.7347 51.1287 42.4688 51.1287 47.0585C51.1287 51.6497 54.864 55.3847 59.4549 55.3847C64.0449 55.3847 67.7785 51.6495 67.7785 47.0585C67.7785 46.1784 67.64 45.3072 67.367 44.4691C67.1697 43.8631 67.5006 43.2118 68.1066 43.0145C68.7124 42.817 69.3637 43.1482 69.5612 43.7542C69.9097 44.8235 70.0862 45.9354 70.0862 47.0585C70.086 52.9222 65.3169 57.6924 59.4546 57.6924Z" fill="white" fill-opacity="0.2"/>
<path d="M18.9616 92.3077C14.508 92.3077 10.8846 88.6843 10.8846 84.2307C10.8846 79.7771 14.508 76.1538 18.9616 76.1538C23.4152 76.1538 27.0385 79.7771 27.0385 84.2307C27.0385 88.6843 23.4152 92.3077 18.9616 92.3077ZM18.9616 78.4615C15.7804 78.4615 13.1923 81.0496 13.1923 84.2307C13.1923 87.4119 15.7804 90 18.9616 90C22.1427 90 24.7308 87.4119 24.7308 84.2307C24.7308 81.0496 22.1427 78.4615 18.9616 78.4615Z" fill="#3028CB"/>
<path d="M18.9616 92.3077C14.508 92.3077 10.8846 88.6843 10.8846 84.2307C10.8846 79.7771 14.508 76.1538 18.9616 76.1538C23.4152 76.1538 27.0385 79.7771 27.0385 84.2307C27.0385 88.6843 23.4152 92.3077 18.9616 92.3077ZM18.9616 78.4615C15.7804 78.4615 13.1923 81.0496 13.1923 84.2307C13.1923 87.4119 15.7804 90 18.9616 90C22.1427 90 24.7308 87.4119 24.7308 84.2307C24.7308 81.0496 22.1427 78.4615 18.9616 78.4615Z" fill="white" fill-opacity="0.2"/>
<path d="M103.192 70.3847C99.3749 70.3847 96.2692 67.279 96.2692 63.4617C96.2692 59.6443 99.3749 56.5386 103.192 56.5386C107.01 56.5386 110.115 59.6443 110.115 63.4617C110.115 67.279 107.01 70.3847 103.192 70.3847ZM103.192 58.8463C100.648 58.8463 98.5769 60.9167 98.5769 63.4617C98.5769 66.0066 100.648 68.077 103.192 68.077C105.737 68.077 107.808 66.0066 107.808 63.4617C107.808 60.9167 105.737 58.8463 103.192 58.8463Z" fill="#3028CB"/>
<path d="M103.192 70.3847C99.3749 70.3847 96.2692 67.279 96.2692 63.4617C96.2692 59.6443 99.3749 56.5386 103.192 56.5386C107.01 56.5386 110.115 59.6443 110.115 63.4617C110.115 67.279 107.01 70.3847 103.192 70.3847ZM103.192 58.8463C100.648 58.8463 98.5769 60.9167 98.5769 63.4617C98.5769 66.0066 100.648 68.077 103.192 68.077C105.737 68.077 107.808 66.0066 107.808 63.4617C107.808 60.9167 105.737 58.8463 103.192 58.8463Z" fill="white" fill-opacity="0.2"/>
<path d="M38.5769 17.3077C36.032 17.3077 33.9615 15.2372 33.9615 12.6923C33.9615 10.1474 36.032 8.0769 38.5769 8.0769C41.1219 8.0769 43.1923 10.1474 43.1923 12.6923C43.1923 15.2372 41.1219 17.3077 38.5769 17.3077ZM38.5769 10.3846C37.3045 10.3846 36.2692 11.4198 36.2692 12.6923C36.2692 13.9648 37.3045 15 38.5769 15C39.8494 15 40.8846 13.9648 40.8846 12.6923C40.8846 11.4198 39.8494 10.3846 38.5769 10.3846Z" fill="#3028CB"/>
<path d="M38.5769 17.3077C36.032 17.3077 33.9615 15.2372 33.9615 12.6923C33.9615 10.1474 36.032 8.0769 38.5769 8.0769C41.1219 8.0769 43.1923 10.1474 43.1923 12.6923C43.1923 15.2372 41.1219 17.3077 38.5769 17.3077ZM38.5769 10.3846C37.3045 10.3846 36.2692 11.4198 36.2692 12.6923C36.2692 13.9648 37.3045 15 38.5769 15C39.8494 15 40.8846 13.9648 40.8846 12.6923C40.8846 11.4198 39.8494 10.3846 38.5769 10.3846Z" fill="white" fill-opacity="0.2"/>
</svg>
