<svg width="20" height="23" fill="none" xmlns="http://www.w3.org/2000/svg"><path d="M14.218 5.492c-.575 0-1.109.088-1.603.264-.494.176-.944.35-1.35.523-.406.173-.758.259-1.057.258-.313 0-.662-.082-1.045-.247a24.015 24.015 0 0 0-1.235-.488A4.1 4.1 0 0 0 6.52 5.56c-.942 0-1.85.257-2.722.77-.873.512-1.59 1.27-2.149 2.274-.559 1.003-.838 2.24-.838 3.711 0 .92.107 1.838.321 2.757.215.92.502 1.79.862 2.608.36.82.758 1.544 1.195 2.172.567.788 1.12 1.466 1.66 2.033.54.567 1.166.85 1.878.85.467 0 .873-.077 1.218-.23.345-.153.71-.308 1.097-.465.387-.157.871-.235 1.454-.235.444 0 .815.046 1.114.137.299.093.572.198.821.316.25.12.512.225.787.316.276.092.61.138 1 .138.513 0 .975-.136 1.384-.408.41-.271.79-.621 1.138-1.05.348-.43.687-.878 1.017-1.345.36-.529.653-1.036.878-1.522.264-.552.488-1.122.672-1.706-.023-.008-.19-.094-.5-.259s-.663-.427-1.056-.787c-.395-.36-.74-.831-1.034-1.413-.295-.582-.443-1.294-.443-2.137 0-.735.117-1.369.35-1.901.234-.533.508-.974.822-1.321.314-.349.596-.615.845-.799.249-.184.392-.287.43-.31-.383-.551-.8-.98-1.252-1.287a5.199 5.199 0 0 0-1.332-.666 6 6 0 0 0-1.167-.259 8 8 0 0 0-.752-.05zm-.804-1.863c.353-.42.64-.909.861-1.464a4.6 4.6 0 0 0 .333-1.718c0-.169-.011-.318-.034-.448-.574.023-1.173.195-1.798.517a5 5 0 0 0-1.545 1.206 5.502 5.502 0 0 0-.873 1.379 4 4 0 0 0-.38 1.7c-.002.14.014.278.046.414.1.023.203.034.31.034.514 0 1.06-.153 1.638-.46a4.7 4.7 0 0 0 1.442-1.16z" fill="#000"/></svg>