<svg width="57" height="56" viewBox="0 0 57 56" fill="none" xmlns="http://www.w3.org/2000/svg">
<rect x="0.5" width="56" height="56" rx="28" fill="#3028CB"/>
<rect x="0.5" width="56" height="56" rx="28" fill="white" fill-opacity="0.8"/>
<path d="M38.9848 19.1524C39.4535 18.6837 40.2133 18.6837 40.6819 19.1524C41.1505 19.621 41.1505 20.3808 40.6819 20.8494L25.3486 36.1828C24.8799 36.6514 24.1201 36.6514 23.6515 36.1828L16.9848 29.5161C16.5162 29.0475 16.5162 28.2877 16.9848 27.819C17.4535 27.3504 18.2133 27.3504 18.6819 27.819L24.5 33.6372L38.9848 19.1524Z" fill="#3028CB"/>
<path d="M38.9848 19.1524C39.4535 18.6837 40.2133 18.6837 40.6819 19.1524C41.1505 19.621 41.1505 20.3808 40.6819 20.8494L25.3486 36.1828C24.8799 36.6514 24.1201 36.6514 23.6515 36.1828L16.9848 29.5161C16.5162 29.0475 16.5162 28.2877 16.9848 27.819C17.4535 27.3504 18.2133 27.3504 18.6819 27.819L24.5 33.6372L38.9848 19.1524Z" fill="white" fill-opacity="0.2"/>
</svg>
