<svg width="22" height="22" viewBox="0 0 22 22" fill="none" xmlns="http://www.w3.org/2000/svg">
<path d="M9.625 20.625C9.625 20.8571 9.53281 21.0796 9.36872 21.2437C9.20462 21.4078 8.98206 21.5 8.75 21.5H1.75C1.51794 21.5 1.29538 21.4078 1.13128 21.2437C0.967187 21.0796 0.875 20.8571 0.875 20.625V1.375C0.875 1.14294 0.967187 0.920376 1.13128 0.756282C1.29538 0.592187 1.51794 0.5 1.75 0.5H8.75C8.98206 0.5 9.20462 0.592187 9.36872 0.756282C9.53281 0.920376 9.625 1.14294 9.625 1.375C9.625 1.60706 9.53281 1.82962 9.36872 1.99372C9.20462 2.15781 8.98206 2.25 8.75 2.25H2.625V19.75H8.75C8.98206 19.75 9.20462 19.8422 9.36872 20.0063C9.53281 20.1704 9.625 20.3929 9.625 20.625ZM21.6191 10.3809L17.2441 6.00594C17.0799 5.84175 16.8572 5.74951 16.625 5.74951C16.3928 5.74951 16.1701 5.84175 16.0059 6.00594C15.8418 6.17012 15.7495 6.39281 15.7495 6.625C15.7495 6.85719 15.8418 7.07988 16.0059 7.24406L18.888 10.125H8.75C8.51794 10.125 8.29538 10.2172 8.13128 10.3813C7.96719 10.5454 7.875 10.7679 7.875 11C7.875 11.2321 7.96719 11.4546 8.13128 11.6187C8.29538 11.7828 8.51794 11.875 8.75 11.875H18.888L16.0059 14.7559C15.8418 14.9201 15.7495 15.1428 15.7495 15.375C15.7495 15.6072 15.8418 15.8299 16.0059 15.9941C16.1701 16.1582 16.3928 16.2505 16.625 16.2505C16.8572 16.2505 17.0799 16.1582 17.2441 15.9941L21.6191 11.6191C21.7004 11.5378 21.765 11.4413 21.809 11.3351C21.853 11.2288 21.8757 11.115 21.8757 11C21.8757 10.885 21.853 10.7712 21.809 10.6649C21.765 10.5587 21.7004 10.4622 21.6191 10.3809Z" fill="#E70E38"/>
</svg>
