<svg width="24" height="24" viewBox="0 0 24 24" fill="none" xmlns="http://www.w3.org/2000/svg">
<path d="M11.7687 9.81006V13.9812H17.5652C17.3106 15.3226 16.5468 16.4585 15.4012 17.2222L18.8967 19.9344C20.9334 18.0545 22.1083 15.2933 22.1083 12.0132C22.1083 11.2495 22.0398 10.5151 21.9125 9.81018L11.7687 9.81006Z" fill="#4285F4"/>
<path d="M5.73826 13.8179L4.94989 14.4214L2.1593 16.595C3.93154 20.1101 7.56388 22.5384 11.7741 22.5384C14.6821 22.5384 17.1201 21.5788 18.9022 19.9339L15.4067 17.2217C14.4471 17.8679 13.2232 18.2596 11.7741 18.2596C8.97382 18.2596 6.59458 16.3699 5.74267 13.8241L5.73826 13.8179Z" fill="#34A853"/>
<path d="M2.16153 6.94141C1.42721 8.39047 1.00623 10.0257 1.00623 11.7685C1.00623 13.5113 1.42721 15.1465 2.16153 16.5956C2.16153 16.6053 5.74524 13.8148 5.74524 13.8148C5.52983 13.1686 5.4025 12.4832 5.4025 11.7684C5.4025 11.0535 5.52983 10.3682 5.74524 9.72194L2.16153 6.94141Z" fill="#FBBC05"/>
<path d="M11.7744 5.28618C13.3606 5.28618 14.7705 5.83449 15.8965 6.89197L18.9808 3.80772C17.1106 2.06489 14.6824 0.997559 11.7744 0.997559C7.5641 0.997559 3.93154 3.41603 2.1593 6.94094L5.7429 9.72169C6.5947 7.17591 8.97404 5.28618 11.7744 5.28618Z" fill="#EA4335"/>
</svg>
