<svg width="25" height="24" viewBox="0 0 25 24" fill="none" xmlns="http://www.w3.org/2000/svg">
<path d="M22.1497 20.625C22.0838 20.739 21.9891 20.8337 21.8751 20.8995C21.761 20.9654 21.6316 21 21.5 21H3.49996C3.36838 20.9999 3.23914 20.9651 3.12523 20.8992C3.01133 20.8333 2.91676 20.7386 2.85102 20.6247C2.78529 20.5107 2.7507 20.3814 2.75073 20.2498C2.75077 20.1182 2.78542 19.9889 2.85121 19.875C4.27903 17.4065 6.47934 15.6365 9.04715 14.7975C7.777 14.0414 6.79016 12.8892 6.2382 11.5179C5.68624 10.1467 5.59967 8.63211 5.99178 7.20688C6.3839 5.78165 7.23301 4.52454 8.40874 3.6286C9.58446 2.73266 11.0218 2.24744 12.5 2.24744C13.9781 2.24744 15.4155 2.73266 16.5912 3.6286C17.7669 4.52454 18.616 5.78165 19.0081 7.20688C19.4003 8.63211 19.3137 10.1467 18.7617 11.5179C18.2098 12.8892 17.2229 14.0414 15.9528 14.7975C18.5206 15.6365 20.7209 17.4065 22.1487 19.875C22.2147 19.9889 22.2495 20.1182 22.2497 20.2499C22.2498 20.3815 22.2153 20.5109 22.1497 20.625Z" fill="#B0B0B0"/>
</svg>
