<svg width="16" height="17" fill="none" xmlns="http://www.w3.org/2000/svg"><path d="M14.875 2.75H11.75v-.625A1.875 1.875 0 0 0 9.875.25h-3.75A1.875 1.875 0 0 0 4.25 2.125v.625H1.125a.625.625 0 0 0 0 1.25h.625v11.25A1.25 1.25 0 0 0 3 16.5h10a1.25 1.25 0 0 0 1.25-1.25V4h.625a.625.625 0 1 0 0-1.25zM5.5 2.125a.625.625 0 0 1 .625-.625h3.75a.625.625 0 0 1 .625.625v.625h-5v-.625zM13 15.25H3V4h10v11.25zM6.75 7.125v5a.625.625 0 1 1-1.25 0v-5a.625.625 0 0 1 1.25 0zm3.75 0v5a.624.624 0 1 1-1.25 0v-5a.625.625 0 0 1 1.25 0z" fill="#E70E38"/></svg>