<svg width="166" height="190" viewBox="0 0 166 190" fill="none" xmlns="http://www.w3.org/2000/svg">
<path d="M148 91.4442C153.981 54.6863 128.961 20.0512 92.1158 14.0845C55.2708 8.11786 20.5536 33.0791 14.5728 69.837C8.59204 106.595 33.6124 141.23 70.4574 147.197C107.302 153.163 142.02 128.202 148 91.4442Z" fill="#3372FF"/>
<path d="M148 91.4442C153.981 54.6863 128.961 20.0512 92.1158 14.0845C55.2708 8.11786 20.5536 33.0791 14.5728 69.837C8.59204 106.595 33.6124 141.23 70.4574 147.197C107.302 153.163 142.02 128.202 148 91.4442Z" fill="url(#paint0_linear_0_2060)"/>
<path d="M68.0373 71.1541L84.2519 85.4933C87.6034 88.4536 87.9081 93.5946 84.9407 96.9382C81.9733 100.282 76.8202 100.586 73.4687 97.6254L57.2542 83.2862C53.9026 80.3259 53.5979 75.1849 56.5653 71.8413C59.5327 68.4977 64.6858 68.1938 68.0373 71.1541Z" fill="white"/>
<path d="M68.0373 71.1541L84.2519 85.4933C87.6034 88.4536 87.9081 93.5946 84.9407 96.9382C81.9733 100.282 76.8202 100.586 73.4687 97.6254L57.2542 83.2862C53.9026 80.3259 53.5979 75.1849 56.5653 71.8413C59.5327 68.4977 64.6858 68.1938 68.0373 71.1541Z" fill="#847EFF"/>
<path d="M106.004 76.1627L87.8949 96.1186C84.1592 100.229 77.7211 100.546 73.6012 96.819C69.4813 93.0922 69.1501 86.6693 72.8991 82.5591L91.0079 62.6032C94.7436 58.4931 101.182 58.1759 105.302 61.9028C109.421 65.6297 109.753 72.0526 106.004 76.1627Z" fill="white"/>
<path d="M166 86.6034C166 89.0219 164.039 90.9779 161.615 90.9779C159.191 90.9779 157.23 89.0219 157.23 86.6034C157.23 84.1849 159.191 82.229 161.615 82.229C164.039 82.229 166 84.1849 166 86.6034Z" fill="#322BCC"/>
<path d="M85.8283 4.37444C85.8283 6.79294 83.8678 8.74888 81.4435 8.74888C79.0193 8.74888 77.0587 6.79294 77.0587 4.37444C77.0587 1.95594 79.0193 0 81.4435 0C83.8678 0 85.8283 1.95594 85.8283 4.37444Z" fill="#322BCC"/>
<path d="M4.38481 90.9779C6.80647 90.9779 8.76962 89.0194 8.76962 86.6034C8.76962 84.1875 6.80647 82.229 4.38481 82.229C1.96315 82.229 0 84.1875 0 86.6034C0 89.0194 1.96315 90.9779 4.38481 90.9779Z" fill="#322BCC"/>
<path d="M49.543 185V172.49H45.0996V170.908H55.7441V172.49H51.3008V185H49.543ZM58.9082 185.195C56.0859 185.195 54.2012 183.154 54.2012 179.922V179.902C54.2012 176.67 56.0957 174.648 58.8984 174.648C61.7012 174.648 63.6055 176.66 63.6055 179.902V179.922C63.6055 183.164 61.7109 185.195 58.9082 185.195ZM58.918 183.691C60.7051 183.691 61.8672 182.305 61.8672 179.922V179.902C61.8672 177.52 60.6953 176.152 58.8984 176.152C57.1309 176.152 55.9395 177.529 55.9395 179.902V179.922C55.9395 182.314 57.1211 183.691 58.918 183.691ZM69.6895 185V170.908H74.4258C78.5957 170.908 81.0762 173.506 81.0762 177.93V177.949C81.0762 182.393 78.6152 185 74.4258 185H69.6895ZM71.4473 183.418H74.3086C77.502 183.418 79.2793 181.465 79.2793 177.969V177.949C79.2793 174.434 77.502 172.49 74.3086 172.49H71.4473V183.418ZM87.209 185.195C84.3867 185.195 82.502 183.154 82.502 179.922V179.902C82.502 176.67 84.3965 174.648 87.1992 174.648C90.002 174.648 91.9062 176.66 91.9062 179.902V179.922C91.9062 183.164 90.0117 185.195 87.209 185.195ZM87.2188 183.691C89.0059 183.691 90.168 182.305 90.168 179.922V179.902C90.168 177.52 88.9961 176.152 87.1992 176.152C85.4316 176.152 84.2402 177.529 84.2402 179.902V179.922C84.2402 182.314 85.4219 183.691 87.2188 183.691ZM103.898 185.234C99.9629 185.234 97.4434 182.373 97.4434 177.881V177.871C97.4434 173.467 99.9629 170.674 103.898 170.674C107.141 170.674 109.084 172.539 109.738 175.029L109.787 175.215H107.941L107.902 175.107C107.248 173.32 105.881 172.295 103.898 172.295C100.998 172.295 99.2402 174.395 99.2402 177.871V177.881C99.2402 181.426 101.027 183.613 103.898 183.613C106.398 183.613 108.117 181.992 108.117 179.629V179.375H104.143V177.832H109.875V179.17C109.875 182.979 107.658 185.234 103.898 185.234ZM116.076 185.195C113.254 185.195 111.369 183.154 111.369 179.922V179.902C111.369 176.67 113.264 174.648 116.066 174.648C118.869 174.648 120.773 176.66 120.773 179.902V179.922C120.773 183.164 118.879 185.195 116.076 185.195ZM116.086 183.691C117.873 183.691 119.035 182.305 119.035 179.922V179.902C119.035 177.52 117.863 176.152 116.066 176.152C114.299 176.152 113.107 177.529 113.107 179.902V179.922C113.107 182.314 114.289 183.691 116.086 183.691Z" fill="#332BCC"/>
<defs>
<linearGradient id="paint0_linear_0_2060" x1="81.7794" y1="3.64634" x2="81.7794" y2="148.277" gradientUnits="userSpaceOnUse">
<stop offset="0.26" stop-color="#322BCC"/>
<stop offset="0.56" stop-color="#433CD0"/>
<stop offset="1" stop-color="#534CD3"/>
</linearGradient>
</defs>
</svg>
