<svg width="151" height="150" viewBox="0 0 151 150" fill="none" xmlns="http://www.w3.org/2000/svg">
<g clip-path="url(#clip0_0_3485)">
<g opacity="0.2">
<path d="M39.3841 121.402C43.6841 121.402 47.1699 120.353 47.1699 119.058C47.1699 117.764 43.6841 116.715 39.3841 116.715C35.0842 116.715 31.5984 117.764 31.5984 119.058C31.5984 120.353 35.0842 121.402 39.3841 121.402Z" fill="#232323"/>
</g>
<g opacity="0.2">
<path d="M78.8967 132.938C100.217 132.938 117.5 129.831 117.5 125.998C117.5 122.166 100.217 119.059 78.8967 119.059C57.5767 119.059 40.2935 122.166 40.2935 125.998C40.2935 129.831 57.5767 132.938 78.8967 132.938Z" fill="#232323"/>
</g>
<path d="M48.0654 83.5848C48.0654 83.6481 48.0564 83.7115 48.0384 83.7734V83.7764C47.9735 84.0074 47.7894 84.2294 47.5056 84.4379C46.2054 85.3938 42.7821 86.0763 38.7654 86.0763C34.7488 86.0763 31.3269 85.3938 30.0268 84.4379C29.6646 84.172 29.4666 83.8851 29.4666 83.5848C29.4666 82.2093 33.6298 81.0933 38.7654 81.0933C43.9011 81.0933 48.0658 82.2093 48.0658 83.5848H48.0654Z" fill="#C69C6D"/>
<g opacity="0.4">
<path d="M31.9685 84.1147C32.2253 84.7732 32.9379 85.1208 33.6065 85.3495C34.7172 85.729 35.8816 85.9518 37.0542 86.0084C35.2092 86.5837 33.221 86.0647 31.3591 85.5453C30.5101 85.3083 29.54 84.9622 29.2576 84.127C29.015 83.4093 29.4294 82.5967 30.0504 82.1632C30.6714 81.7297 31.451 81.5988 32.2055 81.5298C32.96 81.4608 33.7313 81.4402 34.445 81.1863C33.7715 81.4323 33.0789 81.6899 32.5535 82.1774C32.0281 82.6653 31.7079 83.4472 31.9681 84.115L31.9685 84.1147Z" fill="white"/>
</g>
<path d="M38.765 86.6048C34.7052 86.6048 31.1521 85.9216 29.7136 84.8637C29.1991 84.4865 28.9377 84.0559 28.9377 83.5846C28.9377 81.5097 34.0317 80.5647 38.765 80.5647C43.4982 80.5647 48.5937 81.5097 48.5937 83.5846C48.5937 83.6873 48.5806 83.7897 48.5544 83.8895C48.5521 83.8996 48.5499 83.9093 48.5469 83.9195C48.4509 84.2615 48.2052 84.5795 47.8179 84.8641C46.3794 85.9216 42.8259 86.6048 38.765 86.6048ZM38.765 81.6215C33.0905 81.6215 29.9949 82.9182 29.9949 83.5846C29.9949 83.6941 30.1235 83.8535 30.3391 84.0117C31.5695 84.9166 35.0345 85.5481 38.765 85.5481C42.4955 85.5481 45.962 84.9166 47.192 84.0121C47.4335 83.8351 47.504 83.7057 47.525 83.6472C47.5269 83.6397 47.5287 83.6322 47.531 83.6247C47.5347 83.6112 47.537 83.5981 47.537 83.5846C47.537 82.9182 44.441 81.6215 38.7654 81.6215H38.765Z" fill="#232323"/>
<path d="M48.0623 85.3561C47.9356 86.7016 43.8207 87.7827 38.7649 87.7827C33.7092 87.7827 29.4661 86.6667 29.4661 85.2912V83.585C29.4661 83.8853 29.6641 84.1722 30.0263 84.4381C31.3264 85.394 34.7483 86.0765 38.7649 86.0765C42.7816 86.0765 46.2049 85.394 47.5051 84.4381C47.7889 84.2296 47.9731 84.0076 48.0379 83.7766L48.0604 85.211L48.0619 85.3561H48.0623Z" fill="#C69C6D"/>
<g opacity="0.3">
<path d="M48.0623 85.3561C47.9356 86.7016 43.8207 87.7827 38.7649 87.7827C33.7092 87.7827 29.4661 86.6667 29.4661 85.2912V83.585C29.4661 83.8853 29.6641 84.1722 30.0263 84.4381C31.3264 85.394 34.7483 86.0765 38.7649 86.0765C42.7816 86.0765 46.2049 85.394 47.5051 84.4381C47.7889 84.2296 47.9731 84.0076 48.0379 83.7766L48.0604 85.211L48.0619 85.3561H48.0623Z" fill="#232323"/>
</g>
<g opacity="0.3">
<path d="M44.453 81.6136H43.046C43.046 81.6136 38.3788 82.4817 35.7223 81.6136V82.3853C35.7223 82.3853 36.1869 85.0313 42.9302 83.8422C42.9302 83.8422 42.719 85.2068 38.2198 86.0716L46.1529 85.376L47.6394 82.8376C47.6394 82.8376 46.0753 81.5765 44.453 81.6136Z" fill="#232323"/>
</g>
<path d="M38.765 88.3113C34.0317 88.3113 28.9377 87.3663 28.9377 85.291V83.5848C28.9377 83.293 29.1744 83.0564 29.4661 83.0564C29.7579 83.0564 29.9945 83.293 29.9945 83.5848C29.9945 83.6943 30.1231 83.8536 30.3387 84.0119C31.5691 84.9168 35.0341 85.5483 38.7646 85.5483C42.4951 85.5483 45.9616 84.9168 47.1916 84.0123C47.4541 83.8195 47.5149 83.6834 47.5287 83.6339C47.5996 83.3815 47.8452 83.2184 48.1055 83.2529C48.3657 83.2866 48.5619 83.506 48.566 83.7685L48.59 85.351C48.59 85.3694 48.5896 85.3878 48.5877 85.4058C48.3995 87.4023 43.3636 88.3113 38.7642 88.3113H38.765ZM29.9949 85.0503V85.2914C29.9949 85.9578 33.0905 87.2545 38.765 87.2545C44.4395 87.2545 47.4129 86.0106 47.5336 85.3263L47.5299 85.0544C45.9417 86.0028 42.5769 86.605 38.765 86.605C34.9531 86.605 31.5804 86.0013 29.9949 85.0503Z" fill="#232323"/>
<path d="M35.7223 74.2312V82.3852C37.4589 83.3054 40.4908 83.5732 43.046 82.3852V74.2312C40.571 73.7246 38.1302 73.7313 35.7223 74.2312Z" fill="#FBB03B"/>
<g opacity="0.4">
<path d="M39.3842 73.8652H38.7643V83.5845H39.3842V73.8652Z" fill="white"/>
</g>
<g opacity="0.3">
<path d="M41.891 74.033V82.8177L43.046 82.3857V74.2313L41.891 74.033Z" fill="#232323"/>
</g>
<g opacity="0.3">
<path d="M36.8634 74.033V82.8177L35.7223 82.3857V74.2313L36.8634 74.033Z" fill="#232323"/>
</g>
<path d="M39.338 83.7114C37.8174 83.7114 36.434 83.3607 35.4751 82.8526C35.3022 82.7611 35.1938 82.5815 35.1938 82.3857V74.2314C35.1938 73.9809 35.3697 73.7649 35.615 73.7139C38.099 73.1982 40.6347 73.1982 43.1521 73.7139C43.3981 73.7641 43.5747 73.9805 43.5747 74.2317V82.3861C43.5747 82.5916 43.4555 82.7787 43.2691 82.8654C41.9746 83.4672 40.6085 83.7117 39.3383 83.7117L39.338 83.7114ZM36.251 82.0554C37.8053 82.7517 40.3178 82.9441 42.5176 82.04V74.6679C40.4236 74.2902 38.3195 74.2899 36.251 74.6667V82.0554Z" fill="#232323"/>
<path d="M36.1869 120.434C35.6731 120.434 35.453 119.95 35.0896 118.588C34.853 117.701 34.5624 116.401 34.2252 114.724C33.6597 111.912 32.9536 107.994 32.1264 103.079C30.7182 94.7138 29.429 86.2403 29.4159 86.156C29.372 85.8672 29.5704 85.598 29.8591 85.5541C30.1471 85.5106 30.4171 85.7086 30.461 85.9973C32.1309 96.9863 34.9422 114.116 36.155 118.521C37.0947 114.227 38.8235 98.0858 39.8011 87.7332C39.8285 87.4426 40.0861 87.2303 40.3771 87.2566C40.6677 87.284 40.8811 87.542 40.8537 87.8326C40.8462 87.9128 40.0846 95.9596 39.1977 103.903C38.6765 108.571 38.2141 112.293 37.8241 114.963C37.5912 116.556 37.3812 117.792 37.1997 118.636C36.9271 119.904 36.7261 120.434 36.1872 120.434L36.1869 120.434Z" fill="#232323"/>
<path d="M40.4382 118.723C39.9196 118.723 39.6931 118.196 39.3815 117.014C39.1692 116.209 38.9138 115.03 38.6232 113.511C38.1361 110.966 37.5387 107.42 36.8483 102.971C35.6735 95.4015 34.6201 87.7335 34.6096 87.657C34.5698 87.3679 34.7723 87.1013 35.0615 87.0615C35.3513 87.0225 35.6172 87.2243 35.657 87.5134C37.0058 97.3485 39.3102 112.668 40.4082 116.808C41.312 112.625 42.8956 97.2278 43.7813 87.3488C43.8076 87.0582 44.0637 86.8437 44.3551 86.8695C44.6457 86.8958 44.8602 87.1523 44.8343 87.4433C44.8272 87.5205 44.1338 95.2354 43.3141 102.852C42.8322 107.328 42.4013 110.897 42.0338 113.457C41.8145 114.986 41.6146 116.172 41.4398 116.982C41.1803 118.185 40.9745 118.722 40.439 118.722L40.4382 118.723Z" fill="#232323"/>
<path d="M59.1392 60.6401C57.1258 76.8461 44.3769 82.6868 41.0473 95.8114C38.0593 107.59 44.6334 121.016 55.8508 126.042C61.7218 128.673 68.345 129.117 74.7947 129.091C87.2694 129.043 100.729 126.926 109.528 118.213C118.475 109.352 120.445 95.892 121.204 83.4146C121.705 75.1609 121.876 66.7871 120.032 58.7205C118.677 52.7888 116.24 47.1071 112.952 41.9621C107.563 33.5306 99.4003 26.3201 89.4977 24.2989C79.5951 22.2776 67.8557 23.1604 60.8315 35.1619C56.597 42.3971 60.1689 52.35 59.1392 60.6401Z" fill="#FAB347"/>
<g opacity="0.4">
<path d="M47.8779 89.1667C44.1504 94.5037 40.3715 95.6542 42.8432 90.6161C45.3148 85.578 48.8825 81.1762 52.0584 76.5498C55.2347 71.9231 58.0948 66.8756 58.8422 61.314C59.6799 55.0781 57.7922 48.7151 58.6262 42.4788C59.3323 37.1977 62.0578 32.2117 66.1224 28.7662C70.1867 25.3207 75.5514 23.448 80.8772 23.6156C74.2622 25.3372 67.0314 27.489 63.3448 33.2448C59.8168 38.7532 60.6317 45.8553 61.3048 52.362C61.9127 58.239 62.2715 64.3507 60.2233 69.8925C58.9749 73.2701 56.891 76.2633 54.8293 79.2153C52.5122 82.5326 50.1954 85.8498 47.8783 89.1675L47.8779 89.1667Z" fill="white"/>
</g>
<g opacity="0.2">
<path d="M100.371 65.0242C99.2094 62.8305 97.9693 60.5475 95.8802 59.1408C93.0598 57.2418 89.2685 57.3521 85.9513 58.2127C80.3953 59.6542 75.3965 63.0326 72.0782 67.5877C70.9682 69.1117 70.0235 70.7801 68.6068 72.0427C66.7183 73.7257 64.1889 74.5185 61.9348 75.7046C59.6803 76.8907 57.4959 78.8013 57.3433 81.2842C57.2514 82.7767 57.9193 84.2362 57.8574 85.7298C57.7659 87.9315 56.1272 89.7768 54.3785 91.1838C52.6299 92.5908 50.6424 93.8021 49.3734 95.6298C48.104 97.4576 47.8112 100.192 49.4664 101.701C50.8415 102.955 52.955 102.915 54.842 102.876C56.729 102.837 58.8958 103.005 60.0313 104.466C60.8972 105.58 60.9422 107.221 62.0293 108.135C63.1423 109.07 64.9164 108.807 66.1314 108C67.3464 107.192 68.1789 105.964 69.1393 104.881C70.0997 103.798 71.3315 102.788 72.8015 102.696C76.3258 102.473 78.2447 107.33 81.7595 107.664C83.3435 107.815 84.8582 106.971 86.039 105.936C87.2199 104.901 88.1938 103.65 89.444 102.695C91.337 101.25 93.7262 100.583 96.068 100.035C98.4099 99.4863 100.815 99.009 102.911 97.857C105.007 96.705 106.786 94.7197 106.948 92.3887C107.204 88.719 103.586 85.8386 102.895 82.2221C102.4 79.6301 103.468 77.0036 103.493 74.3677C103.525 71.0598 101.929 67.968 100.37 65.025L100.371 65.0242Z" fill="#232323"/>
</g>
<path d="M74.2715 129.696C68.3769 129.696 61.6171 129.288 55.604 126.594C50.0502 124.105 45.425 119.535 42.5799 113.725C39.734 107.913 38.9817 101.498 40.4622 95.6629C41.9757 89.6966 45.3117 85.3174 48.8431 80.6809C53.0712 75.1301 57.4437 69.39 58.5399 60.5655C58.9141 57.5528 58.6617 54.2246 58.4172 51.0056C57.9909 45.3848 57.5499 39.5726 60.3102 34.8563C63.5907 29.2515 68.1684 25.5623 73.9167 23.8913C78.4629 22.5698 83.7455 22.5079 89.6187 23.7064C94.4154 24.6855 99.0155 26.8875 103.291 30.2513C107.099 33.2464 110.615 37.1835 113.461 41.6359C116.856 46.9481 119.266 52.6508 120.621 58.5851C122.493 66.7781 122.297 75.378 121.806 83.4506C121.056 95.79 119.061 109.621 109.953 118.642C102.506 126.017 91.007 129.632 74.7972 129.695C74.6229 129.696 74.4474 129.696 74.2715 129.696V129.696ZM81.5742 24.045C72.5825 24.045 65.8002 27.8681 61.3531 35.4664C58.7832 39.8573 59.2096 45.4785 59.6221 50.9145C59.8707 54.1924 60.128 57.582 59.7387 60.7148C58.6021 69.8633 54.1295 75.735 49.8039 81.4133C46.349 85.9489 43.0857 90.2325 41.633 95.9603C38.7376 107.373 45.2266 120.62 56.0979 125.492C62.081 128.172 68.9094 128.513 74.7924 128.487C90.6695 128.426 101.892 124.924 109.103 117.784C117.923 109.049 119.864 95.4896 120.601 83.3779C121.086 75.3949 121.282 66.8989 119.444 58.8548C118.119 53.0565 115.764 47.4821 112.443 42.2873C108.96 36.8378 101.332 27.3308 89.3772 24.8906C86.6157 24.327 84.0136 24.0454 81.5742 24.0454V24.045Z" fill="#232323"/>
<g opacity="0.2">
<path d="M92.2134 24.9934C92.2134 24.9934 118.312 42.9353 115.853 56.1398C114.041 65.8673 116.521 66.3102 116.521 80.172C116.521 94.0339 118.393 106.416 106.962 113.06C95.5311 119.705 95.2866 118.392 82.5538 120.053C69.8211 121.714 63.7168 127.04 53.2502 119.906C42.2799 112.429 40.9284 97.332 42.5766 91.467C42.5766 91.467 36.2706 104.076 44.3072 115.929C52.3438 127.783 68.3949 131.707 85.0963 128.499C101.798 125.292 111.514 119.705 115.565 109.738C119.616 99.7718 122.854 80.8572 121.499 71.0618C120.145 61.266 119.05 49.4502 114.859 45.2599C114.859 45.2599 108.526 31.2285 92.2134 24.9938V24.9934Z" fill="#232323"/>
</g>
<path d="M104.591 71.7607C103.793 72.0757 103.012 72.4309 102.244 72.8055C101.478 73.1831 100.724 73.5829 99.9946 74.0164C99.2678 74.4536 98.5595 74.9145 97.895 75.4196C97.2361 75.9296 96.617 76.4775 96.0867 77.0734L96.08 77.0809C95.8298 77.3621 95.3993 77.3872 95.1181 77.1371C94.8368 76.887 94.8117 76.4565 95.0618 76.1752C95.081 76.1535 95.1046 76.131 95.1256 76.1122C95.8235 75.51 96.5693 75.0135 97.3328 74.5691C98.1005 74.1319 98.8898 73.7565 99.6867 73.4104C100.486 73.0687 101.297 72.7672 102.114 72.4912C102.933 72.2179 103.757 71.9681 104.591 71.7607H104.591Z" fill="#232323"/>
<path d="M50.9098 96.7035C51.8578 96.5478 52.8185 96.4597 53.783 96.4113C54.7479 96.3656 55.718 96.3705 56.69 96.4263C57.6628 96.4788 58.6344 96.6123 59.6038 96.7983C60.5732 96.9907 61.529 97.2851 62.4707 97.656C62.8209 97.794 62.9927 98.1896 62.8547 98.5395C62.7167 98.8897 62.321 99.0615 61.9712 98.9235C61.9464 98.9137 61.9228 98.9028 61.8999 98.8905L61.8782 98.8788C61.0775 98.4502 60.2323 98.0718 59.3443 97.7838C58.4555 97.5018 57.5424 97.2626 56.6094 97.101C55.6775 96.9356 54.7318 96.8182 53.7797 96.7511C52.8275 96.6862 51.869 96.6603 50.9098 96.7035Z" fill="#232323"/>
<path d="M104.138 87.8427C103.072 87.7594 102.005 87.8187 100.956 87.9615C100.694 88.0039 100.433 88.0369 100.173 88.0868L99.398 88.2454L98.6342 88.4445C98.3792 88.5064 98.1328 88.6013 97.8827 88.6778L97.5095 88.7985L97.1443 88.9425C96.9024 89.0415 96.6564 89.1274 96.4194 89.2362C95.9492 89.4623 95.4737 89.6697 95.03 89.9397C94.1173 90.4302 93.2934 91.0594 92.4995 91.7029L92.465 91.731C92.1725 91.968 91.7435 91.923 91.5065 91.6305C91.2695 91.338 91.3145 90.909 91.607 90.672C91.6277 90.6555 91.6494 90.6398 91.6712 90.6259L92.3762 90.1785C92.6113 90.0308 92.8408 89.8759 93.0909 89.754L93.8252 89.3671C93.9455 89.2996 94.0723 89.2444 94.1994 89.1904L94.5793 89.0258C95.0784 88.7914 95.6042 88.6242 96.1202 88.4412C96.3797 88.3542 96.6474 88.2908 96.9095 88.215L97.304 88.1063L97.7045 88.0219C97.9723 87.9702 98.2352 87.9 98.5052 87.864L99.3103 87.7433L100.119 87.6657C100.388 87.6432 100.66 87.6379 100.928 87.6229C102.006 87.5911 103.087 87.6465 104.138 87.8423L104.138 87.8427Z" fill="#232323"/>
<path d="M98.0622 101.204C97.1772 100.701 96.2352 100.288 95.2789 99.9431C94.3212 99.5981 93.3387 99.3338 92.3483 99.144C91.8548 99.0387 91.3538 98.9843 90.8573 98.9179C90.6079 98.8935 90.3574 98.8815 90.1084 98.8628L89.735 98.8376H89.3607C89.1117 98.838 88.8631 98.8331 88.6152 98.8384L87.8738 98.8913C87.7508 98.9014 87.6271 98.9055 87.5048 98.9202L87.1388 98.9757L86.4098 99.0852L86.3581 99.093C85.9861 99.1489 85.6392 98.8924 85.5837 98.5204C85.5278 98.1484 85.7843 97.8019 86.1563 97.746C86.1773 97.743 86.1994 97.7408 86.2204 97.7396L87.0263 97.6958L87.4279 97.6748C87.5618 97.6718 87.6961 97.6793 87.8296 97.6812L88.6306 97.7014C88.8964 97.7209 89.1616 97.7513 89.426 97.7757L89.8223 97.815L90.2149 97.8792C90.4759 97.9242 90.7381 97.9624 90.9968 98.013C91.5117 98.1323 92.0273 98.2395 92.5291 98.3978C93.5371 98.6929 94.5181 99.0615 95.4597 99.5067C96.4013 99.9525 97.3088 100.458 98.1608 101.057C98.2009 101.085 98.2103 101.14 98.1822 101.18C98.156 101.217 98.1057 101.228 98.0667 101.206L98.0618 101.204L98.0622 101.204Z" fill="#232323"/>
<path d="M82.0816 101.917C82.0047 102.032 81.914 102.183 81.8345 102.325C81.7524 102.469 81.6736 102.616 81.5975 102.766C81.4437 103.065 81.3046 103.372 81.1719 103.684C80.9116 104.31 80.7005 104.958 80.5415 105.623C80.3754 106.287 80.291 106.97 80.2621 107.659L80.2542 108.179C80.2621 108.351 80.2767 108.524 80.2876 108.698L80.3056 108.96L80.3469 109.218L80.4305 109.737L80.264 109.236L80.1804 108.984L80.12 108.726C80.0806 108.553 80.0371 108.38 80.0007 108.205L79.9227 107.676C79.8372 106.967 79.8095 106.241 79.8695 105.521C79.9224 104.8 80.033 104.08 80.2017 103.371C80.2884 103.017 80.3836 102.664 80.4969 102.315C80.5527 102.14 80.612 101.965 80.6769 101.791C80.7429 101.614 80.8059 101.451 80.8936 101.256V101.255C81.0492 100.912 81.4531 100.76 81.7962 100.915C82.1394 101.07 82.2916 101.474 82.1364 101.817C82.121 101.851 82.1011 101.886 82.0812 101.916L82.0816 101.917Z" fill="#232323"/>
<path d="M68.6791 102.617C68.6619 102.618 68.6217 102.628 68.5884 102.635C68.555 102.641 68.5175 102.652 68.4811 102.661C68.4087 102.678 68.3349 102.699 68.2602 102.722C68.1117 102.764 67.9629 102.819 67.814 102.87C67.5181 102.983 67.2211 103.105 66.9335 103.25C66.3564 103.536 65.7939 103.872 65.27 104.268C65.1339 104.362 65.0127 104.472 64.8826 104.574C64.754 104.678 64.6242 104.781 64.5057 104.897L64.1394 105.234C64.022 105.351 63.9095 105.474 63.7936 105.594C63.5551 105.83 63.3541 106.097 63.1355 106.354C62.9244 106.616 62.7384 106.897 62.5366 107.171C62.6889 106.869 62.8276 106.557 62.9937 106.26C63.1677 105.968 63.3267 105.662 63.527 105.383C63.6237 105.242 63.7175 105.097 63.8176 104.957L64.1345 104.547C64.2376 104.407 64.3527 104.278 64.4679 104.148C64.5845 104.02 64.6932 103.882 64.8181 103.761C65.297 103.253 65.8325 102.794 66.407 102.377C66.6935 102.167 66.9961 101.976 67.307 101.794C67.4656 101.707 67.622 101.618 67.7889 101.538C67.8706 101.498 67.9542 101.457 68.0412 101.42C68.0847 101.401 68.126 101.381 68.1732 101.363C68.2205 101.344 68.2599 101.327 68.324 101.305L68.4159 101.274C68.777 101.153 69.1685 101.348 69.2896 101.709C69.4111 102.07 69.2169 102.461 68.8554 102.582C68.798 102.602 68.7365 102.613 68.6791 102.617V102.617Z" fill="#232323"/>
<path d="M86.3953 29.2537C86.3953 29.2537 81.7063 23.2076 71.1024 28.8356C60.4982 34.4632 61.3183 41.3167 61.3183 43.9301C61.3183 46.5435 62.1744 53.1877 62.1744 55.6038C62.1744 58.02 64.1979 62.3231 64.1979 62.3231C64.1979 62.3231 64.6509 65.7442 62.5371 67.2048C62.5371 67.2048 67.4537 74.7551 85.8636 71.532C98.7021 69.2842 101.118 64.2108 101.118 64.2108C101.118 64.2108 98.6709 60.075 99.3662 56.1405C100.061 52.2063 101.571 48.7331 99.8346 41.787C98.0979 34.8408 94.1721 26.8376 86.3953 29.2537Z" fill="#262E3A"/>
<path d="M100.473 51.7122C100.665 53.7811 100.067 55.1476 99.1898 56.0506C97.4547 57.8371 94.625 57.8112 94.625 57.8112C92.8325 61.7704 89.6206 64.1997 84.3537 65.8669H84.3522C84.2255 65.9078 84.0987 65.9468 83.9686 65.9847C82.685 66.3698 81.2821 66.6852 79.751 66.9286C78.2408 67.1686 76.8005 67.2443 75.443 67.1854C74.3753 67.1386 73.3576 67.0088 72.3972 66.8078C68.5317 66.0016 65.5763 64.0534 63.9365 61.8368V61.8353C63.7235 61.5484 63.5348 61.2571 63.3672 60.9642C62.7691 59.9146 62.3993 58.6872 62.1743 56.8377C61.9493 54.9833 61.8695 52.9583 61.8526 51.2236C61.8496 50.8808 61.8496 50.5501 61.8511 50.2362C61.8556 49.2848 61.8766 48.4786 61.8965 47.9183C61.895 47.9183 61.892 47.9183 61.8905 47.9198C61.8935 47.8669 61.895 47.8156 61.8965 47.7672C80.0922 44.3697 85.6403 34.6902 85.6403 34.6902C85.6403 34.6902 86.8182 45.9822 90.2461 48.3559C94.6628 51.4137 96.2108 47.9029 96.2108 47.9029C96.2108 47.9029 99.101 47.7747 100.137 50.2857C100.305 50.6888 100.422 51.1617 100.474 51.7126L100.473 51.7122Z" fill="#F9C4B2"/>
<path d="M94.4753 79.7261C94.4888 79.8333 95.0386 84.4162 91.5732 87.1841C90.2821 88.2183 88.4337 88.9991 85.7915 89.2016L85.6737 89.2121L85.1997 83.5886C87.35 82.9889 87.7546 82.1797 87.7546 82.1797V80.6561C90.6477 81.0787 93.1152 80.3088 94.4757 79.7261H94.4753Z" fill="#F9C4B2"/>
<path d="M89.4155 93.5806C89.9682 95.0589 89.438 96.6369 89.417 96.7017L89.4155 96.7032C88.529 97.3239 87.4962 97.7405 86.492 98.0139C85.1769 98.3746 83.9097 98.4879 83.0731 98.4879C83.0731 98.4879 81.3305 99.6702 78.4857 100.676C75.905 101.589 72.4167 102.357 68.5014 101.961C68.5014 101.961 64.6359 102.319 61.8496 97.7135C63.7674 98.6529 66.0249 99.2341 68.0814 99.6207C70.6906 98.8749 72.4437 98.168 74.1639 95.921C74.4357 95.5647 74.7406 95.2175 75.0639 94.8837C76.9302 92.9495 79.3734 91.4664 79.3734 91.4664H85.8635L85.7427 90.032C85.8256 90.0639 88.4911 91.1041 89.4151 93.5806H89.4155Z" fill="#F9C4B2"/>
<path d="M86.492 98.0142C86.492 98.0142 86.4526 98.1623 86.3153 98.4128C86.021 98.9505 85.2687 99.9574 83.4627 100.988C80.8141 102.498 78.4857 100.676 78.4857 100.676C81.3305 99.6705 83.0731 98.4882 83.0731 98.4882C83.9097 98.4882 85.1765 98.3749 86.492 98.0142Z" fill="#F9C4B2"/>
<path d="M83.9686 65.985V65.9865C83.9686 65.9865 83.1485 69.1939 79.751 69.8734C76.3535 70.5529 75.443 67.1854 75.443 67.1854C76.8005 67.2442 78.2412 67.1689 79.751 66.9285C81.2821 66.6855 82.685 66.3697 83.9686 65.9846V65.985Z" fill="#F9C4B2"/>
<path d="M72.3972 91.4666C72.3972 91.4666 73.2912 93.0535 73.7277 94.4864C72.3927 94.0364 70.2545 93.1244 68.3292 91.4666H72.3972Z" fill="#F9C4B2"/>
<path d="M75.0429 94.8641C75.0429 94.8641 74.531 94.7583 73.7278 94.4865C72.3928 94.0365 70.2545 93.1245 68.3293 91.4666C68.0803 91.2536 67.8354 91.0271 67.5954 90.7871C64.7641 87.9558 58.2905 88.4163 57.4269 91.4666C57.3106 91.8742 57.2956 92.3272 57.4029 92.8256C57.8878 95.0876 59.6439 96.6352 61.85 97.7137C63.7678 98.6531 66.0253 99.2343 68.0818 99.621C70.691 98.8751 72.4441 98.1682 74.1643 95.9212C74.4361 95.565 74.741 95.2177 75.0643 94.884L75.0433 94.8645L75.0429 94.8641Z" fill="#F9C4B2"/>
<path d="M61.8511 50.2355C61.8496 50.5497 61.8496 50.8801 61.8526 51.2228C61.8646 52.9895 61.9434 55.0793 62.1744 56.9881C59.8835 56.801 58.0824 54.8348 58.0824 52.4367C58.0824 50.0386 59.7373 48.2375 61.8905 47.9187C61.8725 48.5 61.8526 49.3036 61.8511 50.2351V50.2355Z" fill="#F9C4B2"/>
<path d="M91.5732 87.1841C91.5732 87.1841 92.8883 91.3155 91.3028 94.5622C90.8648 95.4577 90.1973 96.1582 89.417 96.702C89.438 96.6371 89.9682 95.0591 89.4155 93.5808C88.4915 91.1043 85.826 90.0641 85.7431 90.0322L85.6737 89.2121L85.7915 89.2016C88.4341 88.9991 90.2825 88.2187 91.5732 87.1841Z" fill="#EFC03C"/>
<path d="M85.2203 48.8264C86.8891 48.8264 88.2402 50.6519 88.2402 52.9034C88.2402 55.1549 86.8887 56.9804 85.2203 56.9804C83.5519 56.9804 82.2004 55.1564 82.2004 52.9034C82.2004 50.6504 83.5519 48.8264 85.2203 48.8264Z" fill="#232323"/>
<path d="M84.3523 50.8516C84.8326 50.8516 85.2204 51.4328 85.2204 52.1517C85.2204 52.8706 84.8323 53.4503 84.3523 53.4503C83.8723 53.4503 83.4841 52.8691 83.4841 52.1517C83.4841 51.4343 83.8738 50.8516 84.3523 50.8516Z" fill="white"/>
<path d="M72.3972 91.4666H79.3737C79.3737 91.4666 76.9306 92.9493 75.0642 94.8839L75.0432 94.8644C75.0432 94.8644 74.5313 94.7587 73.7281 94.4868C73.2916 93.0539 72.3976 91.4669 72.3976 91.4669L72.3972 91.4666Z" fill="#EFC03C"/>
<path d="M93.4925 71.3832C93.2146 70.7929 92.8703 70.2642 92.4822 69.7917C89.666 66.3683 84.4775 65.8793 84.3537 65.8669H84.3522C84.2255 65.9078 84.0987 65.9468 83.9686 65.9847V65.9862C83.9686 65.9862 83.1485 69.1936 79.751 69.8731C76.3535 70.5526 75.443 67.1851 75.443 67.1851C74.3753 67.1382 73.3576 67.0084 72.3972 66.8074C72.3972 66.8074 69.9267 67.9639 68.7368 71.0611C68.8051 71.0828 68.8756 71.1038 68.9453 71.1252C68.4308 71.9382 67.8068 73.2091 67.214 75.1579C65.8587 79.6126 66.3466 84.4628 66.3466 84.4628C66.3466 84.4628 79.4735 86.2054 85.1993 83.5887C87.3496 82.9891 87.7542 82.1798 87.7542 82.1798V80.6562C90.6473 81.0788 93.1148 80.3089 94.4753 79.7262V79.7247C95.1957 79.4168 95.6063 79.1599 95.6063 79.1599C95.6063 79.1599 95.3798 75.3848 93.4925 71.3832Z" fill="#5953D5"/>
<path d="M63.7231 50.5179C63.7898 50.7365 63.9323 50.9142 64.0924 51.0451C64.2548 51.1767 64.4457 51.2589 64.6407 51.3099C64.8334 51.3657 65.0416 51.3781 65.2426 51.3845C65.3476 51.3796 65.4488 51.3785 65.5512 51.371L65.8598 51.3346L65.8789 51.3323C66.1752 51.2971 66.4437 51.509 66.4789 51.8052C66.5142 52.1015 66.3023 52.37 66.0061 52.4052C65.9359 52.4135 65.8654 52.4075 65.8013 52.3902L65.4331 52.2905C65.3112 52.2519 65.1897 52.205 65.0716 52.1626C64.8342 52.0591 64.6021 51.9466 64.3951 51.7857C64.1881 51.6312 64.0036 51.4411 63.8806 51.2191C63.7587 50.9982 63.6904 50.753 63.7103 50.519C63.7103 50.5152 63.7137 50.5126 63.7174 50.513C63.7201 50.513 63.7227 50.516 63.7234 50.5186L63.7231 50.5179Z" fill="#232323"/>
<path d="M88.6831 48.6975C88.7596 48.9199 88.7532 49.1741 88.6887 49.4179C88.6235 49.6631 88.4907 49.8926 88.328 50.0929C88.1663 50.2995 87.9691 50.4649 87.764 50.6235C87.6593 50.6936 87.5532 50.7686 87.4445 50.8358L87.1118 51.0225C86.8516 51.1684 86.5223 51.0758 86.3765 50.8155C86.2306 50.5553 86.3232 50.226 86.5835 50.0801C86.645 50.0456 86.7106 50.0243 86.7766 50.0156L86.7976 50.013L87.1058 49.9733C87.2071 49.9556 87.3053 49.932 87.4081 49.911C87.6016 49.8559 87.8003 49.7929 87.9736 49.6916C88.1502 49.5945 88.3152 49.4685 88.4408 49.3013C88.5642 49.1351 88.6591 48.9281 88.6703 48.6998C88.6703 48.696 88.6726 48.6926 88.6763 48.6926C88.679 48.6926 88.682 48.6949 88.6831 48.6971V48.6975Z" fill="#232323"/>
<path d="M68.0818 48.8264C69.7505 48.8264 71.1016 50.6519 71.1016 52.9034C71.1016 55.1549 69.7501 56.9804 68.0818 56.9804C66.4134 56.9804 65.0619 55.1564 65.0619 52.9034C65.0619 50.6504 66.4149 48.8264 68.0818 48.8264Z" fill="#232323"/>
<path d="M67.2148 50.8516C67.6933 50.8516 68.0814 51.4328 68.0814 52.1517C68.0814 52.8706 67.6933 53.4503 67.2148 53.4503C66.7363 53.4503 66.3467 52.8691 66.3467 52.1517C66.3467 51.4343 66.7348 50.8516 67.2148 50.8516Z" fill="white"/>
<path d="M85.8635 91.4666H54.9121L53.2501 71.7607H84.2015L85.8635 91.4666Z" fill="#CCCCCC"/>
<path d="M90.1512 82.3741C89.7447 82.3231 89.3378 82.3261 88.9448 82.3681C88.7483 82.3883 88.5556 82.4202 88.3685 82.4645C88.181 82.5046 88.001 82.565 87.8273 82.6268H87.8262C87.5866 82.7131 87.323 82.5882 87.2371 82.3486C87.1512 82.109 87.2761 81.8453 87.5157 81.7595C87.5697 81.74 87.6263 81.7317 87.6807 81.7325C87.9076 81.7373 88.13 81.7486 88.3471 81.782C88.5642 81.8116 88.7765 81.8551 88.9831 81.9106C89.396 82.0201 89.7905 82.1686 90.155 82.3628C90.1576 82.3643 90.1587 82.3677 90.1572 82.3707C90.1561 82.373 90.1535 82.3741 90.1512 82.3737V82.3741Z" fill="#232323"/>
<path d="M84.1554 96.4246C84.1325 96.8266 84.071 97.2308 83.9697 97.6381C83.8636 98.0442 83.7192 98.4563 83.4466 98.8621L83.4226 98.8981C83.2539 99.1493 82.9134 99.2161 82.6621 99.0473C82.4109 98.8786 82.3441 98.5381 82.5129 98.2868C82.562 98.2137 82.6276 98.1552 82.6992 98.1147C82.9767 97.9587 83.2524 97.6977 83.4961 97.4033C83.7395 97.1063 83.9634 96.7771 84.155 96.4246H84.1554Z" fill="#232323"/>
<g opacity="0.5">
<path d="M42.293 54.8635C41.2719 55.3413 40.934 56.692 41.2021 57.787C41.4703 58.882 42.1846 59.8023 42.7978 60.7484C43.4109 61.6945 43.9539 62.7824 43.8095 63.9007C43.6738 64.9522 42.9556 65.8285 42.2128 66.5849C41.4699 67.3413 40.652 68.071 40.2189 69.0389C39.7861 70.0068 39.8686 71.3084 40.7244 71.9347C39.6635 72.2931 38.6064 71.1048 38.6195 69.985C38.633 68.8653 39.3219 67.8839 39.9403 66.9505C40.559 66.0171 41.1568 64.9409 40.9595 63.8388C40.7949 62.9178 40.1098 62.1903 39.6845 61.3574C39.0838 60.1806 39.0193 58.7433 39.5113 57.5174C40.0033 56.2915 41.0446 55.2982 42.2923 54.8635H42.293Z" fill="white"/>
</g>
<g opacity="0.5">
<path d="M37.034 63.3048C37.7229 63.1912 38.381 63.7721 38.5711 64.4437C38.7613 65.1157 38.7946 65.9527 38.3503 66.4916C37.6333 67.3616 37.799 67.7864 37.6981 68.4772C37.0344 68.5031 36.5814 67.7411 36.6163 67.0777C36.6511 66.4143 37.0006 65.8151 37.2185 65.1877C37.4364 64.5603 37.4938 63.7844 37.034 63.3048Z" fill="white"/>
</g>
<path d="M69.5109 79.6282L69.6324 79.8746C69.7243 80.0606 69.9021 80.1899 70.1076 80.2195L70.3794 80.2589C70.8969 80.3339 71.1036 80.9699 70.7289 81.3348L70.5321 81.5268C70.3836 81.6716 70.3157 81.8804 70.3506 82.0852L70.3971 82.3559C70.4856 82.8712 69.9444 83.2642 69.4817 83.0208L69.2383 82.8929C69.0546 82.7962 68.8352 82.7962 68.6514 82.8929L68.4081 83.0208C67.9453 83.2642 67.4046 82.8712 67.4927 82.3559L67.5392 82.0852C67.5744 81.8804 67.5066 81.6719 67.3577 81.5268L67.1608 81.3348C66.7866 80.9699 66.9932 80.3339 67.5103 80.2589L67.7822 80.2195C67.9877 80.1895 68.1651 80.0606 68.2569 79.8746L68.3784 79.6282C68.6098 79.1594 69.2784 79.1594 69.5098 79.6282H69.5109Z" fill="white"/>
<g opacity="0.3">
<path d="M85.8639 30.9142C85.8639 30.9142 90.3163 30.4091 92.4823 32.5751C96.4228 36.5156 99.0058 44.5406 98.5393 48.6986L100.137 50.2852C100.137 50.2852 101.491 42.9708 98.5292 37.6203C95.5674 32.2698 94.8996 29.16 90.1536 28.896C86.7733 28.7081 86.4711 29.178 86.4711 29.178C86.4711 29.178 84.0549 24.8786 76.2028 27.0281C68.3507 29.1776 64.3037 32.3313 62.1748 37.6627C62.1748 37.6627 68.0822 29.9325 78.2417 28.6488C85.4642 27.7365 85.8643 30.9138 85.8643 30.9138L85.8639 30.9142Z" fill="#2A2433"/>
</g>
<g opacity="0.3">
<path d="M96.8 57.4856C96.8 57.4856 96.3822 64.7396 90.7509 68.1982C90.7509 68.1982 87.0616 65.2398 83.9686 65.9865C83.9686 65.9865 91.0764 64.1718 94.625 57.8115L96.8004 57.4856H96.8Z" fill="#2A2433"/>
</g>
<g opacity="0.3">
<path d="M64.1979 62.3232C64.1979 62.3232 65.3124 68.1339 68.9454 70.8534C68.9454 70.8534 69.5735 68.1972 72.3973 66.8079C72.3973 66.8079 66.3875 65.0412 64.1979 62.3232Z" fill="#2A2433"/>
</g>
<g opacity="0.3">
<path d="M78.8513 67.0523C78.8513 67.0523 80.7406 67.5923 83.1904 67.5923L83.5268 67.0148C83.5268 67.0148 87.3612 67.2304 91.0748 70.4251C92.9566 72.0436 94.3051 79.7978 94.3051 79.7978L95.8711 78.8956C95.8711 78.8956 95.1162 71.3307 91.8083 69.0668C88.5004 66.8029 83.9689 65.9866 83.9689 65.9866L78.8517 67.0527L78.8513 67.0523Z" fill="#232323"/>
</g>
<g opacity="0.3">
<path d="M93.0638 80.3629C93.0638 80.3629 92.7372 87.2632 85.6733 87.7305L85.9137 89.1911C87.7231 89.199 92.1128 87.5017 93.332 85.149C95.3795 81.198 94.3043 79.7974 94.3043 79.7974L93.0635 80.3625L93.0638 80.3629Z" fill="#232323"/>
</g>
<g opacity="0.3">
<path d="M92.4823 49.6085C92.4823 49.6085 96.2045 58.8668 85.8639 65.3138C85.8639 65.3138 92.2846 63.0395 94.625 57.8116C94.625 57.8116 100.588 57.413 100.438 53.4503C100.288 49.4881 99.5326 48.2048 96.2105 47.9026C96.2105 47.9026 95.3225 50.0311 92.4823 49.6085Z" fill="#232323"/>
</g>
<g opacity="0.3">
<path d="M78.4857 100.676L83.0731 98.4882C83.0731 98.4882 85.0145 99.1227 86.6217 98.2673C86.6217 98.2673 83.6772 101.587 81.4876 101.587C79.298 101.587 78.4857 100.676 78.4857 100.676Z" fill="#232323"/>
</g>
<g opacity="0.3">
<path d="M68.3292 91.4666C68.3292 91.4666 73.1281 94.8446 75.0429 94.8641C75.0429 94.8641 77.486 92.2215 79.3737 91.4666C81.2611 90.7117 78.8517 91.4666 78.8517 91.4666H68.3296H68.3292Z" fill="#232323"/>
</g>
<g opacity="0.3">
<path d="M57.4029 92.8257C57.4029 92.8257 66.6898 92.9269 70.7668 93.3672L67.9895 91.1648H57.125L57.4029 92.8257Z" fill="#232323"/>
</g>
<g opacity="0.3">
<path d="M91.5968 87.2632C91.5968 87.2632 89.2621 88.9987 87.3608 88.9987C87.3608 88.9987 87.3604 89.6827 87.1411 90.7732L85.7412 90.0307L85.7911 91.4666L78.0901 91.3154L75.6323 94.4111L77.7878 92.5991C77.7878 92.5991 86.2002 90.2741 83.6142 98.0141C83.6052 98.0407 83.0926 98.4678 83.0731 98.4881C83.0731 98.4881 91.1453 99.1507 92.0851 91.4666C92.4822 88.2198 91.5968 87.2632 91.5968 87.2632Z" fill="#232323"/>
</g>
<g opacity="0.3">
<path d="M58.8223 95.5437C58.8223 95.5437 66.1696 98.7886 68.5014 98.0142C70.8328 97.2394 73.76 96.4193 73.76 96.4193C73.76 96.4193 71.0596 99.6207 68.0818 99.6207C65.1039 99.6207 58.8226 95.5437 58.8226 95.5437H58.8223Z" fill="#232323"/>
</g>
<g opacity="0.3">
<path d="M68.0817 99.6207C68.0817 99.6207 68.654 101.891 73.4097 101.891C73.4097 101.891 68.8036 102.826 65.519 101.261C62.2347 99.6965 61.8496 97.7139 61.8496 97.7139L68.0814 99.6211L68.0817 99.6207Z" fill="#232323"/>
</g>
<g opacity="0.3">
<path d="M61.8965 47.7665L62.1744 56.9881C62.1744 56.9881 58.0824 56.621 58.0824 52.9032C58.0824 49.1855 61.0599 47.9289 61.8969 47.7661L61.8965 47.7665Z" fill="#232323"/>
</g>
<g opacity="0.3">
<path d="M75.6323 67.688C75.6323 67.688 72.2258 67.5729 68.9449 70.8534C68.9449 70.8534 69.4069 67.7442 71.7477 66.8079C71.7477 66.8079 75.3192 67.6876 75.6323 67.6876V67.688Z" fill="#232323"/>
</g>
<g opacity="0.3">
<path d="M86.9544 80.1716C86.9544 80.1716 86.9687 81.8021 85.0967 82.3684L85.1998 83.5886L87.7547 82.3684V80.6561L86.9544 80.1716Z" fill="#232323"/>
</g>
<g opacity="0.3">
<path d="M83.0732 71.9527C83.0732 71.9527 83.2603 83.9509 71.6859 91.131L85.7912 91.4666L84.2012 71.7607L83.0732 71.9527Z" fill="#232323"/>
</g>
<g opacity="0.3">
<path d="M77.9679 41.788C77.9679 41.788 81.6759 40.6765 83.9341 39.1015C84.3875 38.7854 85.0156 38.9935 85.199 39.5152C85.5849 40.6132 86.2929 42.2489 87.3613 43.3173C87.3613 43.3173 84.7948 37.3327 85.6531 34.8052C85.6531 34.8052 80.8685 40.1418 77.9679 41.788Z" fill="#232323"/>
</g>
<g opacity="0.4">
<path d="M55.3722 74.4726C55.8354 74.4726 56.2107 74.0973 56.2107 73.6341C56.2107 73.4129 56.1241 73.2119 55.9842 73.0619C61.1915 72.8553 82.6696 72.0018 83.0735 71.9523L53.2505 71.7603L54.9125 91.4661H56.5422L54.9714 74.3706C55.0906 74.4355 55.2271 74.4726 55.3722 74.4726Z" fill="white"/>
</g>
<g opacity="0.4">
<path d="M63.7167 47.7664C63.7167 47.7664 62.6423 56.7412 64.7738 60.069C67.9054 64.9579 74.5763 67.5735 88.2406 64.1966C88.2406 64.1966 76.1097 70.2146 67.9643 65.2117C67.9643 65.2117 62.6198 63.8036 62.1631 56.6081C61.7063 49.4126 61.8968 47.7667 61.8968 47.7667H63.7171L63.7167 47.7664Z" fill="white"/>
</g>
<g opacity="0.4">
<path d="M86.477 31.9714C86.477 31.9714 88.4341 51.1898 96.2105 47.9026C96.2105 47.9026 93.0425 51.6773 89.417 47.0719C85.7915 42.4662 85.7416 34.6898 85.7416 34.6898C85.7416 34.6898 79.6509 42.9151 69.2574 45.8659L61.8969 47.7668C61.8969 47.7668 76.0141 43.3722 86.477 31.9714Z" fill="white"/>
</g>
<g opacity="0.4">
<path d="M86.9544 75.7319C86.9544 75.7319 87.3612 78.7068 88.9539 79.4621C90.7119 80.2953 93.4835 80.1719 93.4835 80.1719L87.188 80.4059L86.954 75.7323L86.9544 75.7319Z" fill="white"/>
</g>
<g opacity="0.4">
<path d="M79.3737 95.3066C80.0458 95.3066 80.5906 94.8383 80.5906 94.2607C80.5906 93.6831 80.0458 93.2148 79.3737 93.2148C78.7017 93.2148 78.1569 93.6831 78.1569 94.2607C78.1569 94.8383 78.7017 95.3066 79.3737 95.3066Z" fill="white"/>
</g>
<g opacity="0.4">
<path d="M59.375 94.7354C59.6803 94.7354 59.9278 94.5228 59.9278 94.2606C59.9278 93.9984 59.6803 93.7859 59.375 93.7859C59.0697 93.7859 58.8223 93.9984 58.8223 94.2606C58.8223 94.5228 59.0697 94.7354 59.375 94.7354Z" fill="white"/>
</g>
<path d="M100.137 50.8139C100.085 50.8139 100.031 50.8061 99.9788 50.7899C99.7006 50.7033 99.5453 50.4074 99.6316 50.1296C99.6447 50.0868 100.908 45.7709 98.2047 38.2668C96.6485 33.9464 94.4948 31.1474 91.8042 29.9471C89.0615 28.7234 86.6948 29.6579 86.6712 29.6673C86.4155 29.7712 86.1207 29.6613 85.9977 29.4138C85.9722 29.3647 85.3062 28.1148 83.2632 27.4278C81.3245 26.7757 77.75 26.5428 71.7305 29.1352C66.2011 31.5168 62.9491 35.3347 62.0648 40.4831C61.5455 43.5071 62.0363 46.1347 62.2808 47.1551C71.261 45.4001 76.9805 42.0783 80.2133 39.5789C83.774 36.8257 85.1686 34.4501 85.1821 34.4261C85.2965 34.2277 85.5256 34.1257 85.7502 34.1729C85.9741 34.2206 86.1421 34.4069 86.1661 34.6346C86.4871 37.7084 87.9001 46.0878 90.5468 47.9208C91.9662 48.9037 93.1883 49.2629 94.1783 48.9903C95.2598 48.6922 95.7233 47.6966 95.7282 47.6864C95.8486 47.4217 96.1606 47.3028 96.4261 47.4213C96.6916 47.5402 96.8116 47.8496 96.6942 48.1154C96.6683 48.1743 96.0402 49.5629 94.4787 50.0036C93.1681 50.3733 91.643 49.9649 89.9453 48.7897C87.0657 46.7954 85.7277 39.2516 85.2871 36.1124C84.5037 37.1152 83.1106 38.6669 80.9165 40.3713C77.5298 43.0023 71.4976 46.5116 61.994 48.2861C61.7311 48.3348 61.4735 48.1803 61.3928 47.9261C61.3486 47.7866 60.3203 44.4629 61.016 40.3477C61.6602 36.5354 63.9695 31.3267 71.3127 28.1643C81.9687 23.5751 85.7577 27.2553 86.6952 28.5468C87.5836 28.2907 89.747 27.8808 92.2107 28.9709C95.1856 30.2872 97.5372 33.2939 99.1996 37.9087C102.036 45.7833 100.7 50.2567 100.641 50.4434C100.571 50.6696 100.362 50.8147 100.137 50.8147L100.137 50.8139Z" fill="#232323"/>
<path d="M76.3209 67.7329C76.019 67.7329 75.7186 67.7266 75.4201 67.7134C74.3499 67.6666 73.2965 67.5361 72.2889 67.3253C68.5696 66.5494 65.3701 64.6636 63.5116 62.1514C63.5052 62.1432 63.4996 62.1346 63.4936 62.1256C63.2829 61.8394 63.086 61.5372 62.9082 61.2267C62.255 60.0803 61.8789 58.7873 61.6494 56.9014C61.454 55.2916 61.3445 53.3828 61.3239 51.2284C61.3254 50.2561 61.3441 48.4729 61.3617 47.9029C61.3647 47.8471 61.3659 47.8058 61.3674 47.7664H61.8961L62.4245 47.7841C62.4226 47.8478 62.4207 47.8981 62.4177 47.9498C62.4009 48.4977 62.3825 50.2647 62.381 51.2243C62.4012 53.3337 62.5081 55.2031 62.6986 56.7743C62.9097 58.5121 63.2472 59.6869 63.8262 60.7028C63.9879 60.9856 64.1679 61.2608 64.3606 61.5207C64.3666 61.5289 64.3726 61.5376 64.3786 61.5462C66.0875 63.8412 69.0474 65.5696 72.5049 66.2907C73.457 66.4898 74.453 66.6132 75.4659 66.6578C76.8342 66.7171 78.248 66.6327 79.6677 66.4073C81.1553 66.1711 82.5511 65.8587 83.8164 65.4792C83.9461 65.4413 84.068 65.4038 84.1902 65.3644C84.1977 65.3618 84.2052 65.3599 84.2131 65.3577C89.3937 63.7144 92.4567 61.3193 94.1431 57.5941C94.2294 57.4036 94.4259 57.2821 94.6295 57.2836C94.6554 57.2854 97.2597 57.2798 98.8104 55.6831C99.719 54.7478 100.101 53.4286 99.9466 51.7617C99.9024 51.2873 99.8019 50.8591 99.6481 50.4889C98.7695 48.3593 96.3357 48.4268 96.2319 48.4313C95.9439 48.4426 95.6949 48.2161 95.6829 47.9251C95.6709 47.6341 95.8959 47.3881 96.1869 47.3753C96.3196 47.3697 99.461 47.2628 100.625 50.0847C100.819 50.5516 100.945 51.0833 100.999 51.6642C101.184 53.6528 100.702 55.2529 99.5686 56.4199C98.051 57.9822 95.822 58.2747 94.967 58.3287C93.1186 62.1852 89.879 64.6733 84.5127 66.3717C84.5064 66.3736 84.5 66.3754 84.4936 66.3773C84.3684 66.4174 84.2435 66.4561 84.1152 66.4932C82.8095 66.8851 81.3672 67.2079 79.8331 67.4513C78.6526 67.6388 77.4744 67.7333 76.3197 67.7333L76.3209 67.7329Z" fill="#232323"/>
<path d="M75.3886 60.5977C72.6155 60.5977 71.3626 58.7718 71.3086 58.6908C71.1466 58.4482 71.2119 58.12 71.4545 57.9577C71.6964 57.796 72.0234 57.8602 72.1861 58.1013C72.2341 58.171 73.3029 59.6744 75.7179 59.5308C78.5416 59.3605 79.8012 57.7023 79.8534 57.6318C80.0266 57.3982 80.357 57.3472 80.5914 57.5193C80.8257 57.691 80.8783 58.0192 80.7076 58.2547C80.6446 58.3417 79.1255 60.3843 75.7816 60.586C75.6474 60.5943 75.5165 60.598 75.389 60.598L75.3886 60.5977Z" fill="#232323"/>
<path d="M81.5581 44.3313C81.71 44.2439 81.8285 44.1877 81.9631 44.1262C82.0936 44.0665 82.2256 44.0129 82.3583 43.9634C82.6231 43.8622 82.8942 43.7827 83.1668 43.7125C83.7143 43.579 84.2798 43.5164 84.8427 43.5322C85.1243 43.5299 85.4041 43.5775 85.6816 43.6117C85.955 43.6795 86.2321 43.7245 86.492 43.8303C87.0263 43.9979 87.5045 44.2889 87.9578 44.5908C88.0722 44.6669 88.103 44.8214 88.0268 44.9358C87.9556 45.0427 87.8161 45.0764 87.7051 45.0183L87.6845 45.0074C87.2412 44.7738 86.7912 44.5559 86.3078 44.4573C86.0731 44.386 85.8256 44.3737 85.5863 44.3365C85.3418 44.3328 85.1003 44.3137 84.8577 44.3407C84.374 44.3752 83.8958 44.4764 83.438 44.6377C83.21 44.7213 82.9853 44.812 82.7701 44.92C82.6617 44.9733 82.556 45.0292 82.4536 45.0888C82.3542 45.1454 82.2436 45.2155 82.1731 45.2665L82.1675 45.2707C81.9166 45.4525 81.566 45.3967 81.3845 45.1458C81.2026 44.8953 81.2585 44.5443 81.5093 44.3628C81.5251 44.3512 81.5423 44.3403 81.5588 44.3309L81.5581 44.3313Z" fill="#232323"/>
<path d="M68.7373 71.5901C68.6844 71.5901 68.6308 71.5822 68.5775 71.5654C63.7306 70.0324 62.1538 67.5889 62.0889 67.4857C62.0124 67.3639 61.9891 67.2157 62.024 67.0759C62.0589 66.936 62.1496 66.8167 62.2749 66.7455C62.3458 66.7027 64.1229 65.5879 63.4171 61.9369C63.4108 61.9039 63.4074 61.8705 63.4074 61.8367C63.4074 61.545 63.644 61.3076 63.9358 61.3076C64.2001 61.3076 64.4195 61.5011 64.4581 61.7546C65.0776 64.9867 63.9609 66.6184 63.2739 67.2866C63.8866 67.9747 65.5396 69.4965 68.8955 70.5577C69.1738 70.6459 69.3279 70.9429 69.2401 71.2211C69.1689 71.4465 68.9608 71.5905 68.7365 71.5905L68.7373 71.5901Z" fill="#232323"/>
<path d="M92.4823 70.3204C92.2674 70.3204 92.0653 70.1884 91.9865 69.9751C91.8853 69.7013 92.0255 69.3972 92.2993 69.2963C97.3393 67.4344 99.7719 65.0277 100.472 64.2383C98.213 60.3589 98.8168 56.2377 98.8442 56.0596C98.8888 55.7712 99.1588 55.5732 99.4472 55.6182C99.7355 55.6628 99.9332 55.9324 99.8889 56.2204C99.8825 56.2617 99.2889 60.3773 101.566 64.0058C101.681 64.1884 101.673 64.4224 101.546 64.5972C101.449 64.7318 99.083 67.9178 92.6657 70.2882C92.6053 70.3107 92.5434 70.3212 92.4827 70.3212L92.4823 70.3204Z" fill="#232323"/>
<path d="M89.4204 81.3048C88.8609 81.3048 88.2782 81.267 87.6778 81.1792C87.5473 81.1605 87.4164 81.1383 87.2837 81.1147C87.0635 81.0753 86.8922 80.9021 86.8554 80.6812L86.1005 76.1508C86.0525 75.8628 86.2472 75.5906 86.5348 75.5426C86.8228 75.495 87.095 75.6892 87.143 75.9772L87.8357 80.1337C90.6579 80.5443 93.0759 79.7501 94.2673 79.2401C94.5354 79.125 94.8459 79.2495 94.961 79.5176C95.0762 79.7861 94.9517 80.0966 94.6835 80.2117C93.6414 80.658 91.7323 81.3048 89.4204 81.3048Z" fill="#232323"/>
<path d="M94.4757 80.2535C94.2706 80.2535 94.0752 80.1335 93.9897 79.9329C93.875 79.6647 93.9995 79.3539 94.2676 79.2391C94.6036 79.0955 94.8687 78.9635 95.0495 78.8675C94.9463 77.8824 94.5203 74.8017 93.0143 71.6094C92.7683 71.0866 92.4518 70.5882 92.0738 70.1277C89.453 66.9421 84.5618 66.4194 84.308 66.3942C84.0376 66.371 83.8242 66.1441 83.8242 65.8677C83.8242 65.576 84.0601 65.3394 84.3518 65.3394H84.3533C84.3706 65.3394 84.3875 65.3401 84.4047 65.342C84.9736 65.3971 90.0301 65.9802 92.8898 69.4569C93.3237 69.9852 93.6871 70.5579 93.9702 71.159C95.879 75.2056 96.1242 78.9706 96.1336 79.1289C96.1452 79.322 96.0503 79.5061 95.8861 79.6089C95.8677 79.6201 95.432 79.8909 94.6831 80.2115C94.6152 80.2404 94.5447 80.2542 94.4753 80.2542L94.4757 80.2535Z" fill="#232323"/>
<path d="M85.7907 89.7304C85.5174 89.7304 85.2856 89.5197 85.2642 89.2422C85.2421 88.9512 85.4596 88.6969 85.751 88.6748C88.0378 88.4996 89.8854 87.8591 91.2429 86.7716C94.4671 84.1961 93.9567 79.836 93.9511 79.7925C93.9481 79.7704 93.947 79.7483 93.947 79.7262C93.947 79.4344 94.1836 79.197 94.4754 79.197C94.7506 79.197 94.9771 79.407 95.0015 79.6759C95.0446 80.0393 95.5167 84.7106 91.9029 87.5974C90.377 88.8199 88.334 89.5369 85.8316 89.7289C85.8177 89.73 85.8042 89.7304 85.7907 89.7304Z" fill="#232323"/>
<path d="M85.199 84.1173C84.9677 84.1173 84.7554 83.9643 84.6902 83.7307C84.6118 83.4494 84.7764 83.1581 85.0573 83.0797C86.4932 82.6792 87.0519 82.1954 87.2256 82.0057V80.6561C87.2256 80.3643 87.4622 80.1277 87.7539 80.1277C88.0457 80.1277 88.2823 80.3643 88.2823 80.6561V82.1797C88.2823 82.2618 88.2632 82.3428 88.2264 82.4159C88.1413 82.5862 87.6021 83.4671 85.3408 84.0974C85.2936 84.1109 85.2455 84.1169 85.1987 84.1169L85.199 84.1173Z" fill="#232323"/>
<path d="M68.5017 72.289C68.4526 72.289 68.4027 72.2823 68.3532 72.2677C68.0731 72.1859 67.9122 71.8927 67.9939 71.6122C68.0701 71.3519 68.1541 71.1022 68.2441 70.87C69.4954 67.6132 72.0642 66.3794 72.1729 66.3288C72.4373 66.205 72.7519 66.319 72.8757 66.5834C72.9994 66.8474 72.8858 67.1613 72.6226 67.2854C72.5997 67.2963 70.3234 68.4055 69.2303 71.2507C69.1508 71.4562 69.0762 71.677 69.0087 71.9084C68.9416 72.139 68.7304 72.289 68.5017 72.289Z" fill="#232323"/>
<path d="M70.6509 102.598C69.9286 102.598 69.2097 102.563 68.4939 102.492C67.9647 102.524 64.1712 102.572 61.3977 97.9872C61.2466 97.7374 61.3265 97.4123 61.5762 97.2612C61.826 97.1104 62.1507 97.1899 62.3019 97.44C64.8867 101.713 68.417 101.438 68.4526 101.435C68.4867 101.432 68.5205 101.432 68.5542 101.435C71.7567 101.759 75.0384 101.335 78.3091 100.178C81.0477 99.2093 82.7596 98.0614 82.7765 98.0502C82.8639 97.9909 82.9674 97.9594 83.0731 97.9594C83.5602 97.9594 84.8547 97.9148 86.3517 97.5042C87.4351 97.209 88.3636 96.7939 89.1121 96.27C89.3514 96.1028 89.6806 96.1609 89.8482 96.4002C90.0155 96.6394 89.9574 96.9687 89.7185 97.1363C88.8699 97.7303 87.8311 98.1972 86.6307 98.5238C85.1525 98.9295 83.8516 99.0049 83.2325 99.015C82.7607 99.3158 81.119 100.305 78.662 101.174C75.9875 102.121 73.3014 102.597 70.6509 102.597V102.598Z" fill="#232323"/>
<path d="M89.4174 97.2304C89.2501 97.2304 89.0859 97.1513 88.9831 97.0039C88.8162 96.7643 88.8751 96.435 89.1147 96.2681C89.885 95.7319 90.4614 95.0798 90.8281 94.3301C92.2989 91.3181 91.082 87.3836 91.0696 87.3443C90.9815 87.066 91.1356 86.769 91.4135 86.6809C91.6917 86.5928 91.9884 86.7461 92.0769 87.024C92.1331 87.201 93.4374 91.3965 91.778 94.7944C91.3314 95.7079 90.6384 96.4954 89.7192 97.1359C89.6274 97.2 89.522 97.2308 89.4177 97.2308L89.4174 97.2304Z" fill="#232323"/>
<path d="M68.0822 100.149C68.0499 100.149 68.0169 100.146 67.9839 100.14C65.3837 99.6518 63.3009 99.0132 61.6172 98.1886C58.9446 96.8824 57.3527 95.1154 56.8858 92.9367C56.7639 92.3693 56.7748 91.8259 56.9184 91.3219C56.9983 91.0411 57.2908 90.8794 57.5717 90.9586C57.8522 91.0388 58.0149 91.3313 57.935 91.6118C57.8394 91.9474 57.8342 92.3183 57.9193 92.7147C58.3146 94.5601 59.7152 96.0822 62.0818 97.2391C63.6793 98.0213 65.6739 98.6307 68.1793 99.1013C68.4662 99.1553 68.6552 99.4313 68.6012 99.7186C68.5535 99.9724 68.3315 100.149 68.0822 100.149Z" fill="#232323"/>
<path d="M75.0436 95.3929C75.0084 95.3929 74.9724 95.3892 74.9364 95.382C74.9143 95.3775 74.3833 95.2665 73.5586 94.9875C72.0969 94.4948 69.9425 93.5535 67.9846 91.8675C67.7634 91.677 67.7386 91.3433 67.9291 91.1224C68.1193 90.9012 68.453 90.8757 68.6746 91.0669C70.5031 92.6415 72.5236 93.5235 73.8969 93.9867C74.6548 94.2432 75.1456 94.3463 75.1505 94.3474C75.4359 94.4067 75.6196 94.6864 75.5604 94.9722C75.5086 95.2219 75.2889 95.3937 75.0436 95.3937V95.3929Z" fill="#232323"/>
<path d="M68.0814 100.149C67.8515 100.149 67.64 99.9982 67.5736 99.766C67.4934 99.4855 67.6557 99.1931 67.9366 99.1128C70.6977 98.3234 72.1917 97.6289 73.7446 95.6002C74.0131 95.2481 74.3296 94.8828 74.6847 94.516C76.5762 92.5555 78.9976 91.0769 79.0996 91.0151C79.3494 90.8639 79.6741 90.9434 79.8256 91.1924C79.9771 91.4418 79.8976 91.7669 79.6482 91.9184C79.6242 91.933 77.2392 93.3907 75.4449 95.2507C75.1182 95.5882 74.8291 95.9215 74.585 96.2418C72.7021 98.7014 70.7626 99.4042 68.2276 100.129C68.1792 100.143 68.1301 100.15 68.0821 100.15L68.0814 100.149Z" fill="#232323"/>
<path d="M81.2623 102.121C79.5031 102.121 78.2349 101.151 78.1603 101.093C77.9304 100.913 77.8899 100.581 78.0695 100.351C78.2488 100.121 78.5803 100.08 78.8101 100.259C78.8968 100.326 80.9056 101.837 83.201 100.528C84.9129 99.5519 85.5965 98.6245 85.8515 98.1588C85.9505 97.978 85.9828 97.8719 85.9831 97.8708C86.0656 97.594 86.357 97.4305 86.6341 97.5093C86.912 97.5877 87.077 97.8704 87.0028 98.1498C86.9934 98.1847 86.939 98.3748 86.7789 98.6669C86.4703 99.2302 85.6629 100.341 83.7249 101.446C82.8515 101.944 82.0123 102.121 81.2626 102.121H81.2623Z" fill="#232323"/>
<path d="M73.7274 95.0152C73.5009 95.0152 73.2913 94.8686 73.2219 94.6406C72.8079 93.2816 71.945 91.7414 71.9368 91.7261C71.7935 91.4718 71.8835 91.1493 72.1381 91.0064C72.3924 90.8636 72.7149 90.9532 72.8578 91.2074C72.8953 91.2746 73.7851 92.8616 74.2333 94.3327C74.3184 94.6121 74.1609 94.9072 73.8815 94.9923C73.8301 95.0081 73.7784 95.0156 73.7274 95.0156V95.0152Z" fill="#232323"/>
<path d="M85.8639 91.9951H54.9129C54.6384 91.9951 54.4093 91.7847 54.3864 91.5109L52.724 71.8047C52.7116 71.6573 52.7615 71.5114 52.8617 71.4027C52.9618 71.2939 53.1028 71.2317 53.2509 71.2317H84.2019C84.4813 71.2317 84.7127 71.4492 84.7295 71.7282L84.731 71.7541L86.2704 89.9873L86.3911 91.4221C86.4035 91.5694 86.3536 91.7153 86.2535 91.8241C86.1534 91.9332 86.0124 91.9951 85.8643 91.9951H85.8639ZM55.3985 90.9383H85.289L83.7148 72.2892H53.825L55.3985 90.9383Z" fill="#232323"/>
<path d="M78.8825 70.4919C76.4641 70.4919 75.2525 68.5044 74.933 67.3235C74.8569 67.0419 75.0234 66.7516 75.3054 66.6751C75.5866 66.5994 75.8761 66.7651 75.953 67.046C75.9856 67.1641 76.7866 69.9271 79.6479 69.3549C82.6647 68.7515 83.4264 65.972 83.4575 65.8539C83.5314 65.5722 83.8197 65.4024 84.1014 65.4755C84.3834 65.5486 84.5532 65.8351 84.4812 66.1171C84.4445 66.2611 83.5366 69.6549 79.8552 70.3914C79.5117 70.46 79.1874 70.4915 78.8829 70.4915L78.8825 70.4919Z" fill="#232323"/>
<path d="M89.4156 97.2307C89.2907 97.2307 89.1654 97.1868 89.0649 97.0976C88.8951 96.9464 88.8452 96.7113 88.9228 96.5114C88.9997 96.2662 89.3683 94.9642 88.9202 93.7657C88.0791 91.5112 85.5797 90.5354 85.5542 90.5257C85.4848 90.4991 85.4214 90.4582 85.3689 90.4057C85.1627 90.1995 85.1619 89.8638 85.3682 89.6576C85.5294 89.4963 85.7687 89.4607 85.9637 89.5511C86.3057 89.6883 88.9494 90.8208 89.9102 93.396C90.4922 94.9522 90.0201 96.558 89.9196 96.864C89.8971 96.933 89.8596 96.999 89.8116 97.053C89.7069 97.1703 89.5614 97.2307 89.4152 97.2307H89.4156Z" fill="#232323"/>
<path d="M62.1743 57.5169C62.1601 57.5169 62.1458 57.5161 62.1312 57.515C59.5643 57.305 57.5536 55.0745 57.5536 52.4371C57.5536 49.7997 59.3757 47.7661 61.7952 47.399C61.97 47.3656 62.1537 47.423 62.2767 47.5505C62.3765 47.6536 62.4297 47.7927 62.4248 47.9364C62.4068 48.4467 62.3847 49.2605 62.3798 50.2381C62.3783 50.5497 62.3783 50.8782 62.3813 51.2184V51.2195C62.396 53.3859 62.5028 55.3055 62.699 56.9247C62.7181 57.0822 62.6652 57.2401 62.5553 57.3545C62.4552 57.4584 62.3176 57.5165 62.1743 57.5165V57.5169ZM61.3475 48.5881C59.7503 49.1109 58.6107 50.6645 58.6107 52.4371C58.6107 54.3001 59.8681 55.9062 61.5721 56.3517C61.4206 54.8502 61.3373 53.1305 61.3242 51.2274C61.3212 50.8824 61.3212 50.549 61.3227 50.2329C61.3257 49.6062 61.3358 49.046 61.3475 48.5881Z" fill="#232323"/>
<path d="M95.8752 54.3214C95.8955 53.8647 95.9667 53.4537 96.0852 53.0318C96.2063 52.6171 96.3781 52.2042 96.6571 51.8502C96.9305 51.4977 97.3321 51.2179 97.7705 51.1411C98.2058 51.0544 98.6367 51.1276 99.0297 51.2509C99.065 51.2622 99.0848 51.2997 99.0736 51.3349C99.0635 51.3676 99.0305 51.3871 98.9975 51.3811H98.9963C98.6048 51.3098 98.1987 51.3001 97.844 51.4208C97.4855 51.5341 97.2083 51.7921 97.0216 52.1044C96.8326 52.4187 96.7291 52.7884 96.6702 53.1634C96.6132 53.5351 96.5993 53.9382 96.6297 54.2941L96.6308 54.3061C96.6485 54.5142 96.494 54.6976 96.2858 54.7156C96.0773 54.7332 95.894 54.5787 95.8763 54.3706C95.8748 54.3548 95.8748 54.3368 95.8752 54.3214Z" fill="#232323"/>
<path d="M99.3452 52.875C99.1742 52.6972 98.9593 52.5626 98.7365 52.4831C98.513 52.4013 98.2798 52.3766 98.0552 52.3965C97.8294 52.4223 97.6134 52.4932 97.409 52.59C97.307 52.6387 97.2095 52.704 97.1117 52.7576L96.8323 52.9616L96.809 52.9785C96.6392 53.103 96.4003 53.0658 96.2758 52.896C96.1513 52.7257 96.1884 52.4872 96.3587 52.3627C96.3823 52.3455 96.4097 52.3305 96.4355 52.3192L96.8195 52.1572C96.956 52.1175 97.0862 52.0702 97.2242 52.0402C97.5002 51.981 97.7859 51.9573 98.0664 51.9918C98.6308 52.0687 99.1243 52.3961 99.389 52.8446C99.3965 52.8573 99.3924 52.8738 99.3797 52.8817C99.3688 52.8881 99.3549 52.8858 99.3467 52.8772L99.3448 52.8753L99.3452 52.875Z" fill="#232323"/>
</g>
<defs>
<clipPath id="clip0_0_3485">
<rect width="150" height="150" fill="white" transform="translate(0.5)"/>
</clipPath>
</defs>
</svg>
